<svg width="25" height="25" viewBox="0 0 25 25" fill="none" xmlns="http://www.w3.org/2000/svg">
<circle cx="11" cy="13" r="9" fill="white"/>
<path d="M12.5 0C5.6 0 0 5.6 0 12.5C0 19.4 5.6 25 12.5 25C19.4 25 25 19.4 25 12.5C25 5.6 19.4 0 12.5 0ZM12.5 20C11.5833 20 10.8333 19.25 10.8333 18.3333C10.8333 17.4167 11.5833 16.6667 12.5 16.6667C13.4167 16.6667 14.1667 17.4167 14.1667 18.3333C14.1667 19.25 13.4167 20 12.5 20ZM14.4083 7.075L13.85 13.7583C13.7917 14.4583 13.2083 15 12.5 15C11.7917 15 11.2083 14.4583 11.15 13.7583L10.5917 7.075C10.5 5.95833 11.375 5 12.5 5C13.5667 5 14.4167 5.86667 14.4167 6.91667C14.4167 6.96667 14.4167 7.025 14.4083 7.075Z" fill="#FF2147"/>
</svg>
