<svg width="25" height="25" viewBox="0 0 25 25" fill="none" xmlns="http://www.w3.org/2000/svg">
<path d="M12.5 25C19.4036 25 25 19.4036 25 12.5C25 5.59644 19.4036 0 12.5 0C5.59644 0 0 5.59644 0 12.5C0 19.4036 5.59644 25 12.5 25Z" fill="#FF2147"/>
<path d="M15.271 12.5L19.0171 8.75389C19.1182 8.65282 19.1984 8.53282 19.2531 8.40073C19.3079 8.26865 19.336 8.12708 19.336 7.98412C19.336 7.84115 19.3079 7.69958 19.2531 7.5675C19.1984 7.43542 19.1182 7.31541 19.0171 7.21434L17.7856 5.98289C17.6846 5.88178 17.5646 5.80156 17.4325 5.74684C17.3004 5.69211 17.1588 5.66394 17.0159 5.66394C16.8729 5.66394 16.7313 5.69211 16.5992 5.74684C16.4672 5.80156 16.3471 5.88178 16.2461 5.98289L12.5 9.72899L8.75389 5.98289C8.65282 5.88178 8.53282 5.80156 8.40073 5.74684C8.26865 5.69211 8.12708 5.66394 7.98412 5.66394C7.84115 5.66394 7.69958 5.69211 7.5675 5.74684C7.43542 5.80156 7.31541 5.88178 7.21434 5.98289L5.98289 7.21434C5.88178 7.31541 5.80156 7.43542 5.74684 7.5675C5.69211 7.69958 5.66394 7.84115 5.66394 7.98412C5.66394 8.12708 5.69211 8.26865 5.74684 8.40073C5.80156 8.53282 5.88178 8.65282 5.98289 8.75389L9.72899 12.5L5.98289 16.2461C5.88178 16.3471 5.80156 16.4672 5.74684 16.5992C5.69211 16.7313 5.66394 16.8729 5.66394 17.0159C5.66394 17.1588 5.69211 17.3004 5.74684 17.4325C5.80156 17.5646 5.88178 17.6846 5.98289 17.7856L7.21434 19.0171C7.31541 19.1182 7.43542 19.1984 7.5675 19.2531C7.69958 19.3079 7.84115 19.336 7.98412 19.336C8.12708 19.336 8.26865 19.3079 8.40073 19.2531C8.53282 19.1984 8.65282 19.1182 8.75389 19.0171L12.5 15.271L16.2461 19.0171C16.3471 19.1182 16.4672 19.1984 16.5992 19.2531C16.7313 19.3079 16.8729 19.336 17.0159 19.336C17.1588 19.336 17.3004 19.3079 17.4325 19.2531C17.5646 19.1984 17.6846 19.1182 17.7856 19.0171L19.0171 17.7856C19.1182 17.6846 19.1984 17.5646 19.2531 17.4325C19.3079 17.3004 19.336 17.1588 19.336 17.0159C19.336 16.8729 19.3079 16.7313 19.2531 16.5992C19.1984 16.4672 19.1182 16.3471 19.0171 16.2461L15.271 12.5Z" fill="white"/>
</svg>
