<svg width="21" height="21" viewBox="0 0 21 21" fill="none" xmlns="http://www.w3.org/2000/svg">
<path d="M18.5391 21H7.38281C6.02571 21 4.92188 19.8962 4.92188 18.5391V7.38281C4.92188 6.02571 6.02571 4.92188 7.38281 4.92188H18.5391C19.8962 4.92188 21 6.02571 21 7.38281V18.5391C21 19.8962 19.8962 21 18.5391 21ZM7.38281 6.5625C6.93049 6.5625 6.5625 6.93049 6.5625 7.38281V18.5391C6.5625 18.9914 6.93049 19.3594 7.38281 19.3594H18.5391C18.9914 19.3594 19.3594 18.9914 19.3594 18.5391V7.38281C19.3594 6.93049 18.9914 6.5625 18.5391 6.5625H7.38281ZM3.28125 14.4375H2.46094C2.00861 14.4375 1.64062 14.0695 1.64062 13.6172V2.46094C1.64062 2.00861 2.00861 1.64062 2.46094 1.64062H13.6172C14.0695 1.64062 14.4375 2.00861 14.4375 2.46094V3.24023H16.0781V2.46094C16.0781 1.10383 14.9743 0 13.6172 0H2.46094C1.10383 0 0 1.10383 0 2.46094V13.6172C0 14.9743 1.10383 16.0781 2.46094 16.0781H3.28125V14.4375Z" fill="black"/>
</svg>
