<svg width="43" height="43" viewBox="0 0 43 43" fill="none" xmlns="http://www.w3.org/2000/svg">
<path d="M32.25 32.25C38.1871 26.3129 38.1871 16.6871 32.25 10.75C26.3129 4.81294 16.6871 4.81294 10.75 10.75C4.81294 16.6871 4.81294 26.3129 10.75 32.25C16.6871 38.1871 26.3129 38.1871 32.25 32.25Z" fill="#FF1F1F"/>
<path fill-rule="evenodd" clip-rule="evenodd" d="M20.2955 25.5686L25.5683 20.2957L29.7276 16.1364C30.5156 15.3483 30.5156 14.0591 29.7276 13.271C28.9395 12.4829 27.6503 12.4829 26.8622 13.271L22.7028 17.4302L17.43 22.7031L13.2707 26.8624C12.4827 27.6505 12.4827 28.9397 13.2707 29.7278C14.0588 30.5159 15.348 30.5159 16.1361 29.7278L20.2955 25.5686Z" fill="white"/>
<path fill-rule="evenodd" clip-rule="evenodd" d="M25.5683 22.7031L20.2955 17.4302L16.1361 13.271C15.348 12.4829 14.0588 12.4829 13.2707 13.271C12.4827 14.0591 12.4827 15.3483 13.2707 16.1364L17.43 20.2957L22.7028 25.5686L26.8622 29.7278C27.6503 30.5159 28.9395 30.5159 29.7276 29.7278C30.5156 28.9397 30.5156 27.6505 29.7276 26.8624L25.5683 22.7031Z" fill="white"/>
</svg>
