<svg width="19" height="19" viewBox="0 0 19 19" fill="none" xmlns="http://www.w3.org/2000/svg">
<path d="M18.5918 3.81999C18.2345 2.20667 16.6705 0.728773 15.0528 0.414864C14.0669 0.217837 11.317 -0.0255722 9.49889 -0.00664867C7.68074 -0.0266854 4.93126 0.215981 3.94538 0.413751C2.3276 0.728773 0.763621 2.20667 0.408155 3.81999C0.202964 4.79957 0.0029684 6.13238 0 7.95164C0.0029684 9.76978 0.202964 11.103 0.408155 12.0829C0.765477 13.6962 2.32945 15.1741 3.94723 15.488C4.47932 15.5942 5.52605 15.7144 6.66221 15.799C6.79084 16.0011 6.9306 16.2163 7.08149 16.4446C7.68445 17.3581 8.14567 17.9945 8.49557 18.4379C9.07737 19.1755 9.92411 19.1755 10.5059 18.4379C10.8558 17.9945 11.317 17.3581 11.92 16.4446C12.0709 16.2165 12.2106 16.0013 12.3393 15.799C13.4758 15.7144 14.5222 15.5942 15.0546 15.488C16.6724 15.1741 18.2364 13.6962 18.5937 12.0829C18.797 11.103 18.9967 9.77053 19 7.95164C18.9948 6.13201 18.7952 4.79994 18.5918 3.81999Z" fill="black"/>
<path d="M9.49889 -0.00664867C7.68074 -0.0266854 4.93126 0.215981 3.94538 0.413751C2.3276 0.728773 0.763622 2.20667 0.408155 3.81999C0.202965 4.79957 0.0029684 6.13238 0 7.95164C0.0029684 9.76978 0.202965 11.103 0.408155 12.0829C0.618541 13.0324 1.2471 13.9352 2.05859 14.5812C2.85015 14.7707 3.6613 14.8662 4.47524 14.8658C10.1757 14.8658 14.7967 10.2447 14.7967 4.54465C14.7981 3.06019 14.4778 1.59306 13.858 0.244181C12.5901 0.101698 10.8046 -0.0200065 9.49889 -0.00664867Z" fill="black"/>
<path d="M10.5483 13.4677C10.5236 13.5832 10.4661 13.6892 10.3825 13.7728C10.299 13.8563 10.193 13.9139 10.0774 13.9385C9.69414 13.9974 9.30413 13.9974 8.92085 13.9385C8.80526 13.9139 8.69927 13.8564 8.61571 13.7728C8.53214 13.6892 8.47458 13.5833 8.44999 13.4677C8.39062 13.0843 8.39062 12.6941 8.44999 12.3107C8.47458 12.1951 8.53214 12.0891 8.61571 12.0056C8.69927 11.922 8.80526 11.8645 8.92085 11.8399C9.30413 11.781 9.69414 11.781 10.0774 11.8399C10.1932 11.8646 10.2993 11.9224 10.3829 12.0062C10.4664 12.0901 10.5239 12.1964 10.5483 12.3122C10.6076 12.6956 10.6076 13.0858 10.5483 13.4691V13.4677ZM12.8072 7.39023C12.5208 7.79541 12.0915 8.16535 11.4562 8.55384C10.6522 9.04956 10.5234 9.25327 10.5234 9.65215V9.80984C10.526 9.94619 10.5014 10.0817 10.451 10.2084C10.4006 10.3351 10.3255 10.4505 10.23 10.5479C10.1345 10.6452 10.0205 10.7225 9.89477 10.7753C9.76903 10.8281 9.63402 10.8553 9.49765 10.8553C9.36128 10.8553 9.22627 10.8281 9.10053 10.7753C8.97479 10.7225 8.86083 10.6452 8.76533 10.5479C8.66982 10.4505 8.59467 10.3351 8.54429 10.2084C8.4939 10.0817 8.46929 9.94619 8.47188 9.80984V9.44436C8.47188 8.97387 8.5895 8.57462 8.83143 8.22397C9.06593 7.88409 9.41769 7.58206 9.93864 7.27223C10.8993 6.70712 11.0752 6.38987 11.0752 5.96873C11.0752 5.43961 10.6243 5.09751 9.92491 5.09751C9.16092 5.09751 8.66334 5.44481 8.44628 6.13014C8.37595 6.35061 8.23699 6.54283 8.04968 6.67874C7.86237 6.81465 7.63653 6.88713 7.40511 6.8856C7.3784 6.8856 7.35131 6.8856 7.32496 6.88263C7.15872 6.87091 6.99734 6.82136 6.85317 6.73776C6.70899 6.65417 6.58582 6.53873 6.49307 6.40026C6.4004 6.26426 6.34005 6.10888 6.31664 5.94598C6.29323 5.78308 6.30738 5.61698 6.35801 5.46039C6.58063 4.74679 7.03722 4.12903 7.65409 3.70681C8.27597 3.28307 9.06148 3.05933 9.92491 3.05933C10.8217 3.05933 11.654 3.34541 12.2685 3.86488C12.9011 4.39919 13.2492 5.13647 13.2492 5.94053C13.251 6.4934 13.1059 6.96908 12.8072 7.39023Z" fill="white"/>
</svg>
