<svg width="143" height="31" viewBox="0 0 143 31" fill="none" xmlns="http://www.w3.org/2000/svg">
<path d="M57.5695 20.342C57.5695 21.224 57.3525 21.994 56.9185 22.652C56.4845 23.31 55.8545 23.821 55.0285 24.185C54.2165 24.535 53.2225 24.71 52.0465 24.71C51.5285 24.71 51.0175 24.675 50.5135 24.605C50.0235 24.535 49.5475 24.437 49.0855 24.311C48.6375 24.171 48.2105 24.003 47.8045 23.807V20.846C48.5185 21.154 49.2535 21.441 50.0095 21.707C50.7795 21.959 51.5425 22.085 52.2985 22.085C52.8165 22.085 53.2295 22.015 53.5375 21.875C53.8595 21.735 54.0905 21.546 54.2305 21.308C54.3845 21.07 54.4615 20.797 54.4615 20.489C54.4615 20.111 54.3285 19.789 54.0625 19.523C53.8105 19.257 53.4675 19.012 53.0335 18.788C52.5995 18.55 52.1025 18.298 51.5425 18.032C51.1925 17.864 50.8145 17.668 50.4085 17.444C50.0025 17.206 49.6105 16.919 49.2325 16.583C48.8685 16.233 48.5675 15.813 48.3295 15.323C48.0915 14.833 47.9725 14.245 47.9725 13.559C47.9725 12.663 48.1755 11.9 48.5815 11.27C49.0015 10.626 49.5895 10.136 50.3455 9.8C51.1155 9.464 52.0185 9.296 53.0545 9.296C53.8385 9.296 54.5805 9.387 55.2805 9.569C55.9945 9.751 56.7365 10.01 57.5065 10.346L56.4775 12.824C55.7915 12.544 55.1755 12.327 54.6295 12.173C54.0835 12.019 53.5235 11.942 52.9495 11.942C52.5575 11.942 52.2215 12.005 51.9415 12.131C51.6615 12.257 51.4445 12.432 51.2905 12.656C51.1505 12.88 51.0805 13.146 51.0805 13.454C51.0805 13.804 51.1855 14.105 51.3955 14.357C51.6055 14.595 51.9205 14.826 52.3405 15.05C52.7605 15.274 53.2855 15.54 53.9155 15.848C54.6855 16.212 55.3365 16.59 55.8685 16.982C56.4145 17.374 56.8345 17.836 57.1285 18.368C57.4225 18.9 57.5695 19.558 57.5695 20.342ZM64.7469 12.803C66.2869 12.803 67.4629 13.139 68.2749 13.811C69.1009 14.469 69.5139 15.484 69.5139 16.856V24.5H67.3299L66.7209 22.946H66.6369C66.3149 23.352 65.9789 23.688 65.6289 23.954C65.2929 24.22 64.9009 24.409 64.4529 24.521C64.0189 24.647 63.4799 24.71 62.8359 24.71C62.1639 24.71 61.5549 24.584 61.0089 24.332C60.4769 24.066 60.0569 23.667 59.7489 23.135C59.4409 22.589 59.2869 21.903 59.2869 21.077C59.2869 19.859 59.7139 18.963 60.5679 18.389C61.4219 17.801 62.7029 17.479 64.4109 17.423L66.4059 17.36V16.856C66.4059 16.254 66.2449 15.813 65.9229 15.533C65.6149 15.253 65.1809 15.113 64.6209 15.113C64.0609 15.113 63.5149 15.197 62.9829 15.365C62.4509 15.519 61.9189 15.715 61.3869 15.953L60.3579 13.832C60.9739 13.51 61.6529 13.258 62.3949 13.076C63.1509 12.894 63.9349 12.803 64.7469 12.803ZM65.1879 19.229C64.1799 19.257 63.4799 19.439 63.0879 19.775C62.6959 20.111 62.4999 20.552 62.4999 21.098C62.4999 21.574 62.6399 21.917 62.9199 22.127C63.1999 22.323 63.5639 22.421 64.0119 22.421C64.6839 22.421 65.2509 22.225 65.7129 21.833C66.1749 21.427 66.4059 20.86 66.4059 20.132V19.187L65.1879 19.229ZM75.8457 13.034V24.5H72.7167V13.034H75.8457ZM74.2917 8.54C74.7537 8.54 75.1527 8.652 75.4887 8.876C75.8247 9.086 75.9927 9.485 75.9927 10.073C75.9927 10.647 75.8247 11.046 75.4887 11.27C75.1527 11.494 74.7537 11.606 74.2917 11.606C73.8157 11.606 73.4097 11.494 73.0737 11.27C72.7517 11.046 72.5907 10.647 72.5907 10.073C72.5907 9.485 72.7517 9.086 73.0737 8.876C73.4097 8.652 73.8157 8.54 74.2917 8.54ZM85.6251 12.824C86.8571 12.824 87.8441 13.16 88.5861 13.832C89.3281 14.49 89.6991 15.554 89.6991 17.024V24.5H86.5701V17.801C86.5701 16.975 86.4231 16.359 86.1291 15.953C85.8351 15.533 85.3661 15.323 84.7221 15.323C83.7701 15.323 83.1191 15.652 82.7691 16.31C82.4191 16.954 82.2441 17.885 82.2441 19.103V24.5H79.1151V13.034H81.5091L81.9291 14.504H82.0971C82.3491 14.112 82.6571 13.797 83.0211 13.559C83.3851 13.307 83.7911 13.125 84.2391 13.013C84.6871 12.887 85.1491 12.824 85.6251 12.824ZM97.6209 12.803C99.1609 12.803 100.337 13.139 101.149 13.811C101.975 14.469 102.388 15.484 102.388 16.856V24.5H100.204L99.5949 22.946H99.5109C99.1889 23.352 98.8529 23.688 98.5029 23.954C98.1669 24.22 97.7749 24.409 97.3269 24.521C96.8929 24.647 96.3539 24.71 95.7099 24.71C95.0379 24.71 94.4289 24.584 93.8829 24.332C93.3509 24.066 92.9309 23.667 92.6229 23.135C92.3149 22.589 92.1609 21.903 92.1609 21.077C92.1609 19.859 92.5879 18.963 93.4419 18.389C94.2959 17.801 95.5769 17.479 97.2849 17.423L99.2799 17.36V16.856C99.2799 16.254 99.1189 15.813 98.7969 15.533C98.4889 15.253 98.0549 15.113 97.4949 15.113C96.9349 15.113 96.3889 15.197 95.8569 15.365C95.3249 15.519 94.7929 15.715 94.2609 15.953L93.2319 13.832C93.8479 13.51 94.5269 13.258 95.2689 13.076C96.0249 12.894 96.8089 12.803 97.6209 12.803ZM98.0619 19.229C97.0539 19.257 96.3539 19.439 95.9619 19.775C95.5699 20.111 95.3739 20.552 95.3739 21.098C95.3739 21.574 95.5139 21.917 95.7939 22.127C96.0739 22.323 96.4379 22.421 96.8859 22.421C97.5579 22.421 98.1249 22.225 98.5869 21.833C99.0489 21.427 99.2799 20.86 99.2799 20.132V19.187L98.0619 19.229ZM119.121 24.5L118.029 20.93H112.569L111.477 24.5H108.054L113.346 9.443H117.231L122.544 24.5H119.121ZM116.181 14.777C116.111 14.539 116.02 14.238 115.908 13.874C115.796 13.51 115.684 13.139 115.572 12.761C115.46 12.383 115.369 12.054 115.299 11.774C115.229 12.054 115.131 12.404 115.005 12.824C114.893 13.23 114.781 13.622 114.669 14C114.571 14.364 114.494 14.623 114.438 14.777L113.367 18.263H117.273L116.181 14.777ZM130.596 12.824C130.75 12.824 130.932 12.831 131.142 12.845C131.352 12.859 131.52 12.88 131.646 12.908L131.415 15.848C131.317 15.82 131.17 15.799 130.974 15.785C130.792 15.757 130.631 15.743 130.491 15.743C130.085 15.743 129.693 15.799 129.315 15.911C128.937 16.009 128.594 16.17 128.286 16.394C127.992 16.618 127.754 16.919 127.572 17.297C127.404 17.661 127.32 18.116 127.32 18.662V24.5H124.191V13.034H126.564L127.026 14.966H127.173C127.397 14.574 127.677 14.217 128.013 13.895C128.349 13.573 128.734 13.314 129.168 13.118C129.616 12.922 130.092 12.824 130.596 12.824ZM141.707 24.5H132.656V22.652L137.969 15.428H132.971V13.034H141.518V15.071L136.352 22.106H141.707V24.5Z" fill="white"/>
<path d="M6.77658 17.8108C7.08847 17.8108 7.3413 17.558 7.3413 17.2461C7.3413 16.9342 7.08847 16.6814 6.77658 16.6814C6.4647 16.6814 6.21187 16.9342 6.21187 17.2461C6.21187 17.558 6.4647 17.8108 6.77658 17.8108Z" fill="white"/>
<path d="M18.0709 11.0342C14.6457 11.0342 11.859 13.8208 11.859 17.2461C11.859 20.6713 14.6457 23.4579 18.0709 23.4579C21.4961 23.4579 24.2828 20.6713 24.2828 17.2461C24.2828 13.8208 21.4961 11.0342 18.0709 11.0342ZM18.0988 16.6815C19.3315 16.6964 20.3298 17.704 20.3298 18.9402C20.3298 19.9535 19.659 20.8132 18.7383 21.0985C18.678 21.1172 18.6356 21.1712 18.6356 21.2343V21.7444C18.6356 22.0452 18.4087 22.3078 18.1085 22.3273C17.7797 22.3486 17.5062 22.0881 17.5062 21.7638V21.2366C17.5062 21.1744 17.4669 21.118 17.4075 21.0997C16.4975 20.8196 15.8309 19.9789 15.8124 18.9826C15.8066 18.6684 16.0377 18.3896 16.3516 18.3761C16.6749 18.3621 16.9414 18.6201 16.9414 18.9402C16.9414 19.5809 17.4776 20.0986 18.1248 20.0684C18.6994 20.0415 19.1722 19.5687 19.199 18.9942C19.2293 18.347 18.7115 17.8108 18.0708 17.8108C16.8253 17.8108 15.812 16.7975 15.812 15.5519C15.812 14.5386 16.4827 13.679 17.4035 13.3936C17.4638 13.3749 17.5061 13.3209 17.5061 13.2578V12.7477C17.5061 12.4469 17.7331 12.1843 18.0332 12.1648C18.3621 12.1435 18.6356 12.404 18.6356 12.7283V13.2556C18.6356 13.3177 18.6749 13.3742 18.7342 13.3924C19.6442 13.6725 20.3109 14.5132 20.3294 15.5095C20.3351 15.8237 20.104 16.1025 19.7901 16.1161C19.4668 16.13 19.2003 15.872 19.2003 15.5519C19.2003 14.9292 18.6937 14.4225 18.0709 14.4225C17.4442 14.4225 16.9349 14.9357 16.9416 15.564C16.9481 16.1874 17.4754 16.6739 18.0988 16.6815Z" fill="white"/>
<path d="M34.4477 7.646H1.69415C0.760037 7.646 0 8.40603 0 9.34014V25.1522C0 26.0863 0.760037 26.8463 1.69415 26.8463H34.4477C35.3818 26.8463 36.1418 26.0863 36.1418 25.1522V9.34014C36.1418 8.40596 35.3818 7.646 34.4477 7.646ZM11.859 24.5875H4.51773C4.20742 24.5875 3.95188 24.3372 3.95301 24.0269C3.95527 23.4009 3.44547 22.8911 2.81949 22.8933C2.50917 22.8945 2.25886 22.6389 2.25886 22.3286V12.1637C2.25886 11.8534 2.50917 11.5979 2.81949 11.599C3.44547 11.6013 3.95527 11.0915 3.95301 10.4655C3.95188 10.1552 4.20742 9.90486 4.51773 9.90486H11.8397C12.1405 9.90486 12.4031 10.1318 12.4226 10.432C12.4439 10.7608 12.1834 11.0343 11.859 11.0343H5.16856C5.07736 11.0343 4.99689 11.0929 4.96816 11.1795C4.74397 11.855 4.20897 12.39 3.5335 12.6142C3.44689 12.6429 3.3883 12.7234 3.3883 12.8146V21.6777C3.3883 21.7689 3.44689 21.8494 3.5335 21.8781C4.20904 22.1023 4.74404 22.6373 4.96816 23.3128C4.99689 23.3993 5.07736 23.458 5.16856 23.458H11.8396C12.1404 23.458 12.403 23.6849 12.4225 23.9851C12.4439 24.314 12.1833 24.5875 11.859 24.5875ZM8.47074 17.2462C8.47074 18.1803 7.7107 18.9403 6.77659 18.9403C5.84248 18.9403 5.08244 18.1803 5.08244 17.2462C5.08244 16.3121 5.84248 15.552 6.77659 15.552C7.7107 15.552 8.47074 16.312 8.47074 17.2462ZM18.0709 24.5875C14.0229 24.5875 10.7296 21.2942 10.7296 17.2462C10.7296 13.1981 14.0229 9.90486 18.0709 9.90486C22.1189 9.90486 25.4122 13.1981 25.4122 17.2462C25.4122 21.2942 22.1189 24.5875 18.0709 24.5875ZM33.883 22.3286C33.883 22.6389 33.6327 22.8945 33.3223 22.8933C32.6964 22.8911 32.1866 23.4009 32.1888 24.0269C32.1899 24.3372 31.9344 24.5875 31.6241 24.5875H24.3021C24.0013 24.5875 23.7388 24.3605 23.7193 24.0604C23.698 23.7315 23.9584 23.458 24.2828 23.458H30.9733C31.0645 23.458 31.1449 23.3995 31.1737 23.3128C31.3979 22.6373 31.9329 22.1023 32.6083 21.8782C32.6949 21.8495 32.7535 21.769 32.7535 21.6778V12.8146C32.7535 12.7234 32.6949 12.6429 32.6083 12.6142C31.9328 12.39 31.3978 11.855 31.1737 11.1795C31.1449 11.093 31.0645 11.0343 30.9733 11.0343H24.3022C24.0014 11.0343 23.7388 10.8073 23.7193 10.5072C23.698 10.1783 23.9585 9.90486 24.2829 9.90486H31.6242C31.9345 9.90486 32.19 10.1552 32.1889 10.4655C32.1866 11.0915 32.6964 11.6013 33.3224 11.599C33.6327 11.5979 33.883 11.8534 33.883 12.1637V22.3286H33.883ZM27.6711 17.2462C27.6711 16.3121 28.4311 15.552 29.3652 15.552C30.2993 15.552 31.0594 16.3121 31.0594 17.2462C31.0594 18.1803 30.2993 18.9403 29.3652 18.9403C28.4311 18.9403 27.6711 18.1803 27.6711 17.2462Z" fill="white"/>
<path d="M29.3652 17.8108C29.6771 17.8108 29.93 17.558 29.93 17.2461C29.93 16.9342 29.6771 16.6814 29.3652 16.6814C29.0534 16.6814 28.8005 16.9342 28.8005 17.2461C28.8005 17.558 29.0534 17.8108 29.3652 17.8108Z" fill="white"/>
<path d="M34.0206 4.75803C33.9043 3.82441 33.0487 3.1603 32.1048 3.29047L10.5322 6.37594C10.4454 6.38836 10.4545 6.51641 10.5422 6.51641H34.0803C34.1652 6.51641 34.2309 6.44201 34.2204 6.35773L34.0206 4.75803Z" fill="white"/>
<path d="M30.8578 2.32791C30.9407 2.31605 30.9944 2.23522 30.9741 2.15405L30.7565 1.28297C30.5278 0.365238 29.5921 -0.189454 28.667 0.0596566L10.915 5.03819C10.8302 5.06198 10.8564 5.18855 10.9436 5.17605C15.4046 4.53814 27.5732 2.79818 30.8578 2.32791Z" fill="white"/>
</svg>
