<svg width="28" height="19" viewBox="0 0 28 19" fill="none" xmlns="http://www.w3.org/2000/svg">
<path fill-rule="evenodd" clip-rule="evenodd" d="M2.00889 7.54658H25.9911C26.5239 7.54658 27.0349 7.75239 27.4116 8.11872C27.7883 8.48506 28 8.98192 28 9.5C28 10.0181 27.7883 10.5149 27.4116 10.8813C27.0349 11.2476 26.5239 11.4534 25.9911 11.4534H2.00889C1.4761 11.4534 0.965131 11.2476 0.588391 10.8813C0.21165 10.5149 0 10.0181 0 9.5C0 8.98192 0.21165 8.48506 0.588391 8.11872C0.965131 7.75239 1.4761 7.54658 2.00889 7.54658ZM25.9911 9.23507H2.00889C1.93662 9.23507 1.8673 9.26298 1.8162 9.31268C1.76509 9.36237 1.73638 9.42977 1.73638 9.50005C1.73638 9.57033 1.76509 9.63773 1.8162 9.68743C1.8673 9.73712 1.93662 9.76504 2.00889 9.76504H25.9911C26.0634 9.76504 26.1327 9.73712 26.1838 9.68743C26.2349 9.63773 26.2636 9.57033 26.2636 9.50005C26.2636 9.42977 26.2349 9.36237 26.1838 9.31268C26.1327 9.26298 26.0634 9.23507 25.9911 9.23507ZM2.00889 0H25.9911C26.5221 0.00268349 27.0304 0.209676 27.4049 0.575727C27.7794 0.941778 27.9896 1.43711 27.9896 1.95345C27.9896 2.46978 27.7794 2.96511 27.4049 3.33117C27.0304 3.69722 26.5221 3.90421 25.9911 3.90689H2.00889C1.4779 3.90421 0.969601 3.69722 0.595107 3.33117C0.220612 2.96511 0.0103866 2.46978 0.0103866 1.95345C0.0103866 1.43711 0.220612 0.941778 0.595107 0.575727C0.969601 0.209676 1.4779 0.00268349 2.00889 0ZM25.9911 1.68849H2.00889C1.93729 1.68947 1.86896 1.71782 1.81869 1.7674C1.76841 1.81698 1.74023 1.88381 1.74023 1.95345C1.74023 2.02308 1.76841 2.08991 1.81869 2.13949C1.86896 2.18908 1.93729 2.21742 2.00889 2.21841H25.9911C26.0627 2.21742 26.131 2.18908 26.1813 2.13949C26.2316 2.08991 26.2598 2.02308 26.2598 1.95345C26.2598 1.88381 26.2316 1.81698 26.1813 1.7674C26.131 1.71782 26.0627 1.68947 25.9911 1.68849ZM2.00889 15.0931H25.9911C26.5221 15.0958 27.0304 15.3028 27.4049 15.6688C27.7794 16.0349 27.9896 16.5302 27.9896 17.0466C27.9896 17.5629 27.7794 18.0582 27.4049 18.4243C27.0304 18.7903 26.5221 18.9973 25.9911 19H2.00889C1.4779 18.9973 0.969601 18.7903 0.595107 18.4243C0.220612 18.0582 0.0103866 17.5629 0.0103866 17.0466C0.0103866 16.5302 0.220612 16.0349 0.595107 15.6688C0.969601 15.3028 1.4779 15.0958 2.00889 15.0931ZM25.9911 16.7816H2.00889C1.93729 16.7826 1.86896 16.8109 1.81869 16.8605C1.76841 16.9101 1.74023 16.9769 1.74023 17.0466C1.74023 17.1162 1.76841 17.183 1.81869 17.2326C1.86896 17.2822 1.93729 17.3105 2.00889 17.3115H25.9911C26.0627 17.3105 26.131 17.2822 26.1813 17.2326C26.2316 17.183 26.2598 17.1162 26.2598 17.0466C26.2598 16.9769 26.2316 16.9101 26.1813 16.8605C26.131 16.8109 26.0627 16.7826 25.9911 16.7816ZM2.00889 2.21841H25.9911C26.0627 2.21742 26.131 2.18908 26.1813 2.13949C26.2316 2.08991 26.2598 2.02308 26.2598 1.95345C26.2598 1.88381 26.2316 1.81698 26.1813 1.7674C26.131 1.71782 26.0627 1.68947 25.9911 1.68849H2.00889C1.93729 1.68947 1.86896 1.71782 1.81869 1.7674C1.76841 1.81698 1.74023 1.88381 1.74023 1.95345C1.74023 2.02308 1.76841 2.08991 1.81869 2.13949C1.86896 2.18908 1.93729 2.21742 2.00889 2.21841ZM25.9911 9.23501H2.00889C1.93662 9.23501 1.8673 9.26298 1.8162 9.31268C1.76509 9.36237 1.73638 9.42972 1.73638 9.5C1.73638 9.57028 1.76509 9.63768 1.8162 9.68737C1.8673 9.73707 1.93662 9.76499 2.00889 9.76499H25.9911C26.0634 9.76499 26.1327 9.73707 26.1838 9.68737C26.2349 9.63768 26.2636 9.57028 26.2636 9.5C26.2636 9.42972 26.2349 9.36237 26.1838 9.31268C26.1327 9.26298 26.0634 9.23501 25.9911 9.23501ZM25.9911 16.7816H2.00889C1.93729 16.7826 1.86896 16.8109 1.81869 16.8605C1.76841 16.9101 1.74023 16.9769 1.74023 17.0466C1.74023 17.1162 1.76841 17.183 1.81869 17.2326C1.86896 17.2822 1.93729 17.3105 2.00889 17.3115H25.9911C26.0627 17.3105 26.131 17.2822 26.1813 17.2326C26.2316 17.183 26.2598 17.1162 26.2598 17.0466C26.2598 16.9769 26.2316 16.9101 26.1813 16.8605C26.131 16.8109 26.0627 16.7826 25.9911 16.7816Z" fill="white"/>
</svg>
