<svg width="37" height="36" viewBox="0 0 37 36" fill="none" xmlns="http://www.w3.org/2000/svg">
<g filter="url(#filter0_d_562_165)">
<mask id="path-1-outside-1_562_165" maskUnits="userSpaceOnUse" x="4" y="0" width="29" height="28" fill="black">
<rect fill="white" x="4" width="29" height="28"/>
<path d="M15.4008 10.5554C15.5774 10.7211 15.5861 10.9979 15.4204 11.1744C15.2548 11.351 14.978 11.3597 14.8014 11.1941C14.1584 10.5903 13.4871 10.2525 12.8507 10.1522C12.2033 10.0519 11.5865 10.198 11.0808 10.562C10.0302 11.3183 9.73599 12.8876 9.48533 14.2281L9.4025 14.6662L9.31314 15.1283C8.7726 17.9203 8.18846 20.9348 6.2486 22.3493L6.25514 22.3515C6.74119 22.5695 7.30136 22.576 7.86152 22.3995C8.45219 22.212 9.03851 21.8262 9.54418 21.2682C9.90164 20.8737 10.2177 20.3942 10.4683 19.8406C10.5664 19.6204 10.8258 19.5202 11.0459 19.6204C11.2661 19.7185 11.3663 19.9779 11.2661 20.198C10.9784 20.8389 10.61 21.3947 10.1915 21.8567C9.57687 22.5346 8.85542 23.0076 8.12525 23.2386C7.36456 23.4784 6.58862 23.4631 5.89986 23.1536C5.64049 23.0381 5.39419 22.879 5.16751 22.6763C5.11738 22.637 5.07379 22.5847 5.04328 22.5215C4.93865 22.3035 5.0302 22.042 5.24816 21.9374C7.29482 20.9435 7.89857 17.8288 8.45437 14.9648L8.54374 14.4984C8.58515 14.2847 8.60694 14.1758 8.62656 14.0668C8.90773 12.5694 9.23685 10.8148 10.573 9.85359C11.2661 9.35446 12.1052 9.15176 12.9858 9.28907C13.7901 9.41331 14.6249 9.82526 15.4008 10.5554ZM18.3912 4.12121C19.2849 4.12121 20.0957 4.48302 20.682 5.06934C21.2683 5.65566 21.6301 6.46429 21.6301 7.36011C21.6301 8.25376 21.2683 9.06457 20.682 9.64871C20.0957 10.235 19.2871 10.5968 18.3912 10.5968C17.4954 10.5968 16.6868 10.235 16.1005 9.64871C15.5141 9.06239 15.1523 8.25376 15.1523 7.36011C15.1523 6.46647 15.5141 5.65566 16.1005 5.06934C16.6868 4.4852 17.4976 4.12121 18.3912 4.12121ZM20.0608 5.69053C19.6336 5.26333 19.0429 4.99959 18.3912 4.99959C17.7395 4.99959 17.1489 5.26333 16.7216 5.69053C16.2944 6.11773 16.0307 6.70841 16.0307 7.36011C16.0307 8.01182 16.2944 8.60249 16.7216 9.0297C17.1489 9.4569 17.7395 9.72064 18.3912 9.72064C19.0429 9.72064 19.6336 9.4569 20.0608 9.0297C20.488 8.60249 20.7518 8.01182 20.7518 7.36011C20.7518 6.70841 20.488 6.11773 20.0608 5.69053ZM14.8951 13.062C15.4793 12.1683 16.216 11.5798 17.0028 11.266C17.6044 11.0262 18.2321 10.9478 18.8402 11.0153C19.4483 11.0829 20.0412 11.2987 20.5708 11.6452C21.3119 12.1291 21.9331 12.8702 22.3167 13.8314C22.9575 15.4399 22.951 16.9155 22.9444 18.3824C22.9401 19.6161 22.9335 20.8432 23.3477 22.0943C23.5024 22.5651 23.703 22.9988 23.9492 23.3934C24.1955 23.7879 24.4854 24.1453 24.8211 24.4657C24.978 24.6161 24.9998 24.8559 24.8799 25.0302C24.6402 25.4073 24.3154 25.7364 23.9253 26.0198C22.6306 26.9657 20.5839 27.4082 18.5285 27.3995C16.4819 27.3886 14.4025 26.9287 13.0359 26.0656C12.5717 25.7735 12.1837 25.4313 11.9003 25.039C11.7587 24.845 11.8023 24.5703 11.9962 24.4287L12.0137 24.4156V24.4134C12.4627 24.1192 12.8245 23.7247 13.1057 23.243C13.3977 22.746 13.6113 22.151 13.7574 21.4709C13.9688 20.4814 13.9623 19.3654 13.9579 18.2538C13.947 16.3903 13.9383 14.5289 14.8951 13.062ZM17.3254 12.079C16.6999 12.3275 16.107 12.807 15.6275 13.5393C14.8123 14.7882 14.821 16.5189 14.8297 18.2538C14.8363 19.4177 14.8428 20.5838 14.6118 21.6562C14.4483 22.4234 14.202 23.1035 13.8576 23.6876C13.5917 24.1388 13.2713 24.5289 12.8899 24.8515C13.0643 25.0215 13.2691 25.1785 13.5002 25.3245C14.7295 26.1004 16.6345 26.5146 18.5307 26.5255C20.4183 26.5342 22.2731 26.144 23.4109 25.3136C23.6158 25.1654 23.7945 25.0019 23.9449 24.8254C23.6659 24.5268 23.4196 24.202 23.2038 23.8554C22.9205 23.3999 22.6894 22.9029 22.5129 22.3668C22.0573 20.9892 22.0639 19.688 22.0682 18.3781C22.0748 16.9962 22.0813 15.6056 21.5015 14.154C21.1899 13.3693 20.6864 12.7677 20.0913 12.3798C19.675 12.1073 19.2129 11.9395 18.74 11.8872C18.2735 11.8327 17.7875 11.8937 17.3254 12.079ZM14.396 4.38712C14.5268 4.58982 14.4701 4.8601 14.2674 4.99087C14.0647 5.12165 13.7944 5.06498 13.6637 4.86228C13.5612 4.70534 13.4827 4.54187 13.4304 4.37186C13.3759 4.19967 13.3476 4.0253 13.3476 3.84876C13.3476 3.00742 13.9535 2.26854 14.9322 1.75633C15.8258 1.28989 17.0508 1 18.3912 1C19.7317 1 20.9566 1.28989 21.8503 1.75851C22.8289 2.27072 23.4349 3.0096 23.4349 3.85094C23.4349 3.93594 23.4283 4.02095 23.4152 4.10813L23.4131 4.12339C23.4 4.20403 23.3825 4.2825 23.3586 4.35879C23.2888 4.58982 23.0447 4.72278 22.8115 4.65085C22.5805 4.58111 22.4475 4.33699 22.5194 4.10377C22.5325 4.06454 22.5412 4.0253 22.5478 3.98825L22.5499 3.97517C22.5565 3.93376 22.5587 3.89235 22.5587 3.84876C22.5587 3.35834 22.1336 2.89191 21.4449 2.53227C20.6711 2.12686 19.5922 1.87838 18.3891 1.87838C17.1859 1.87838 16.107 2.12904 15.3332 2.53227C14.6467 2.89191 14.2195 3.36052 14.2195 3.84876C14.2195 3.93812 14.2325 4.02748 14.2609 4.11249C14.2936 4.20621 14.3372 4.29776 14.396 4.38712ZM24.0081 21.4797C23.9231 21.253 24.0364 21.0001 24.2609 20.9151C24.4876 20.8301 24.7404 20.9435 24.8255 21.168C24.9933 21.6061 25.2439 21.9548 25.5731 22.2207C25.9131 22.4932 26.3403 22.685 26.8503 22.7983C27.0857 22.8506 27.2339 23.0839 27.1816 23.3193C27.1293 23.5546 26.8961 23.7029 26.6607 23.6506C26.0155 23.5067 25.4663 23.2582 25.0238 22.9008C24.5726 22.5368 24.2326 22.066 24.0081 21.4797ZM12.1946 21.168C12.2796 20.9413 12.5346 20.828 12.7591 20.9151C12.9858 21.0023 13.0991 21.2552 13.0119 21.4797C12.7874 22.066 12.4474 22.5389 11.9941 22.9029C11.5494 23.2604 11.0023 23.5089 10.3572 23.6527C10.1218 23.705 9.88856 23.5568 9.83625 23.3214C9.78394 23.086 9.93215 22.8528 10.1675 22.8005C10.6776 22.6872 11.107 22.4954 11.4448 22.2229C11.7761 21.9548 12.0268 21.6061 12.1946 21.168ZM21.9811 11.1919C21.8045 11.3575 21.5277 11.3488 21.362 11.1723C21.1964 10.9957 21.2051 10.7189 21.3817 10.5533C22.1576 9.82308 22.9924 9.41113 23.7967 9.28471C24.6772 9.1474 25.5164 9.3501 26.2095 9.84923C27.5456 10.8104 27.8747 12.565 28.1559 14.0624C28.1755 14.1692 28.1973 14.2804 28.2387 14.494L28.3281 14.9604C28.8839 17.8244 29.4876 20.9391 31.5343 21.933C31.7523 22.0376 31.8438 22.2992 31.7392 22.5172C31.7087 22.5782 31.6673 22.6305 31.615 22.6719C31.3883 22.8746 31.142 23.0315 30.8826 23.1492C30.1938 23.4587 29.4179 23.474 28.6572 23.2342C27.9249 23.0032 27.2034 22.5302 26.5909 21.8524C26.1725 21.3903 25.8041 20.8345 25.5164 20.1937C25.4183 19.9735 25.5164 19.7142 25.7365 19.6161C25.9567 19.518 26.216 19.6161 26.3141 19.8362C26.5626 20.392 26.8808 20.8715 27.2383 21.2661C27.744 21.824 28.3303 22.2098 28.9209 22.3973C29.4811 22.5738 30.0413 22.5673 30.5273 22.3493L30.5339 22.3471C28.5962 20.9304 28.012 17.9182 27.4693 15.1261L27.38 14.664L27.2971 14.2259C27.0465 12.8854 26.7522 11.3161 25.7017 10.5598C25.196 10.1958 24.5813 10.0498 23.9318 10.15C23.2954 10.2503 22.624 10.5881 21.9811 11.1919Z"/>
</mask>
<path d="M15.4008 10.5554C15.5774 10.7211 15.5861 10.9979 15.4204 11.1744C15.2548 11.351 14.978 11.3597 14.8014 11.1941C14.1584 10.5903 13.4871 10.2525 12.8507 10.1522C12.2033 10.0519 11.5865 10.198 11.0808 10.562C10.0302 11.3183 9.73599 12.8876 9.48533 14.2281L9.4025 14.6662L9.31314 15.1283C8.7726 17.9203 8.18846 20.9348 6.2486 22.3493L6.25514 22.3515C6.74119 22.5695 7.30136 22.576 7.86152 22.3995C8.45219 22.212 9.03851 21.8262 9.54418 21.2682C9.90164 20.8737 10.2177 20.3942 10.4683 19.8406C10.5664 19.6204 10.8258 19.5202 11.0459 19.6204C11.2661 19.7185 11.3663 19.9779 11.2661 20.198C10.9784 20.8389 10.61 21.3947 10.1915 21.8567C9.57687 22.5346 8.85542 23.0076 8.12525 23.2386C7.36456 23.4784 6.58862 23.4631 5.89986 23.1536C5.64049 23.0381 5.39419 22.879 5.16751 22.6763C5.11738 22.637 5.07379 22.5847 5.04328 22.5215C4.93865 22.3035 5.0302 22.042 5.24816 21.9374C7.29482 20.9435 7.89857 17.8288 8.45437 14.9648L8.54374 14.4984C8.58515 14.2847 8.60694 14.1758 8.62656 14.0668C8.90773 12.5694 9.23685 10.8148 10.573 9.85359C11.2661 9.35446 12.1052 9.15176 12.9858 9.28907C13.7901 9.41331 14.6249 9.82526 15.4008 10.5554ZM18.3912 4.12121C19.2849 4.12121 20.0957 4.48302 20.682 5.06934C21.2683 5.65566 21.6301 6.46429 21.6301 7.36011C21.6301 8.25376 21.2683 9.06457 20.682 9.64871C20.0957 10.235 19.2871 10.5968 18.3912 10.5968C17.4954 10.5968 16.6868 10.235 16.1005 9.64871C15.5141 9.06239 15.1523 8.25376 15.1523 7.36011C15.1523 6.46647 15.5141 5.65566 16.1005 5.06934C16.6868 4.4852 17.4976 4.12121 18.3912 4.12121ZM20.0608 5.69053C19.6336 5.26333 19.0429 4.99959 18.3912 4.99959C17.7395 4.99959 17.1489 5.26333 16.7216 5.69053C16.2944 6.11773 16.0307 6.70841 16.0307 7.36011C16.0307 8.01182 16.2944 8.60249 16.7216 9.0297C17.1489 9.4569 17.7395 9.72064 18.3912 9.72064C19.0429 9.72064 19.6336 9.4569 20.0608 9.0297C20.488 8.60249 20.7518 8.01182 20.7518 7.36011C20.7518 6.70841 20.488 6.11773 20.0608 5.69053ZM14.8951 13.062C15.4793 12.1683 16.216 11.5798 17.0028 11.266C17.6044 11.0262 18.2321 10.9478 18.8402 11.0153C19.4483 11.0829 20.0412 11.2987 20.5708 11.6452C21.3119 12.1291 21.9331 12.8702 22.3167 13.8314C22.9575 15.4399 22.951 16.9155 22.9444 18.3824C22.9401 19.6161 22.9335 20.8432 23.3477 22.0943C23.5024 22.5651 23.703 22.9988 23.9492 23.3934C24.1955 23.7879 24.4854 24.1453 24.8211 24.4657C24.978 24.6161 24.9998 24.8559 24.8799 25.0302C24.6402 25.4073 24.3154 25.7364 23.9253 26.0198C22.6306 26.9657 20.5839 27.4082 18.5285 27.3995C16.4819 27.3886 14.4025 26.9287 13.0359 26.0656C12.5717 25.7735 12.1837 25.4313 11.9003 25.039C11.7587 24.845 11.8023 24.5703 11.9962 24.4287L12.0137 24.4156V24.4134C12.4627 24.1192 12.8245 23.7247 13.1057 23.243C13.3977 22.746 13.6113 22.151 13.7574 21.4709C13.9688 20.4814 13.9623 19.3654 13.9579 18.2538C13.947 16.3903 13.9383 14.5289 14.8951 13.062ZM17.3254 12.079C16.6999 12.3275 16.107 12.807 15.6275 13.5393C14.8123 14.7882 14.821 16.5189 14.8297 18.2538C14.8363 19.4177 14.8428 20.5838 14.6118 21.6562C14.4483 22.4234 14.202 23.1035 13.8576 23.6876C13.5917 24.1388 13.2713 24.5289 12.8899 24.8515C13.0643 25.0215 13.2691 25.1785 13.5002 25.3245C14.7295 26.1004 16.6345 26.5146 18.5307 26.5255C20.4183 26.5342 22.2731 26.144 23.4109 25.3136C23.6158 25.1654 23.7945 25.0019 23.9449 24.8254C23.6659 24.5268 23.4196 24.202 23.2038 23.8554C22.9205 23.3999 22.6894 22.9029 22.5129 22.3668C22.0573 20.9892 22.0639 19.688 22.0682 18.3781C22.0748 16.9962 22.0813 15.6056 21.5015 14.154C21.1899 13.3693 20.6864 12.7677 20.0913 12.3798C19.675 12.1073 19.2129 11.9395 18.74 11.8872C18.2735 11.8327 17.7875 11.8937 17.3254 12.079ZM14.396 4.38712C14.5268 4.58982 14.4701 4.8601 14.2674 4.99087C14.0647 5.12165 13.7944 5.06498 13.6637 4.86228C13.5612 4.70534 13.4827 4.54187 13.4304 4.37186C13.3759 4.19967 13.3476 4.0253 13.3476 3.84876C13.3476 3.00742 13.9535 2.26854 14.9322 1.75633C15.8258 1.28989 17.0508 1 18.3912 1C19.7317 1 20.9566 1.28989 21.8503 1.75851C22.8289 2.27072 23.4349 3.0096 23.4349 3.85094C23.4349 3.93594 23.4283 4.02095 23.4152 4.10813L23.4131 4.12339C23.4 4.20403 23.3825 4.2825 23.3586 4.35879C23.2888 4.58982 23.0447 4.72278 22.8115 4.65085C22.5805 4.58111 22.4475 4.33699 22.5194 4.10377C22.5325 4.06454 22.5412 4.0253 22.5478 3.98825L22.5499 3.97517C22.5565 3.93376 22.5587 3.89235 22.5587 3.84876C22.5587 3.35834 22.1336 2.89191 21.4449 2.53227C20.6711 2.12686 19.5922 1.87838 18.3891 1.87838C17.1859 1.87838 16.107 2.12904 15.3332 2.53227C14.6467 2.89191 14.2195 3.36052 14.2195 3.84876C14.2195 3.93812 14.2325 4.02748 14.2609 4.11249C14.2936 4.20621 14.3372 4.29776 14.396 4.38712ZM24.0081 21.4797C23.9231 21.253 24.0364 21.0001 24.2609 20.9151C24.4876 20.8301 24.7404 20.9435 24.8255 21.168C24.9933 21.6061 25.2439 21.9548 25.5731 22.2207C25.9131 22.4932 26.3403 22.685 26.8503 22.7983C27.0857 22.8506 27.2339 23.0839 27.1816 23.3193C27.1293 23.5546 26.8961 23.7029 26.6607 23.6506C26.0155 23.5067 25.4663 23.2582 25.0238 22.9008C24.5726 22.5368 24.2326 22.066 24.0081 21.4797ZM12.1946 21.168C12.2796 20.9413 12.5346 20.828 12.7591 20.9151C12.9858 21.0023 13.0991 21.2552 13.0119 21.4797C12.7874 22.066 12.4474 22.5389 11.9941 22.9029C11.5494 23.2604 11.0023 23.5089 10.3572 23.6527C10.1218 23.705 9.88856 23.5568 9.83625 23.3214C9.78394 23.086 9.93215 22.8528 10.1675 22.8005C10.6776 22.6872 11.107 22.4954 11.4448 22.2229C11.7761 21.9548 12.0268 21.6061 12.1946 21.168ZM21.9811 11.1919C21.8045 11.3575 21.5277 11.3488 21.362 11.1723C21.1964 10.9957 21.2051 10.7189 21.3817 10.5533C22.1576 9.82308 22.9924 9.41113 23.7967 9.28471C24.6772 9.1474 25.5164 9.3501 26.2095 9.84923C27.5456 10.8104 27.8747 12.565 28.1559 14.0624C28.1755 14.1692 28.1973 14.2804 28.2387 14.494L28.3281 14.9604C28.8839 17.8244 29.4876 20.9391 31.5343 21.933C31.7523 22.0376 31.8438 22.2992 31.7392 22.5172C31.7087 22.5782 31.6673 22.6305 31.615 22.6719C31.3883 22.8746 31.142 23.0315 30.8826 23.1492C30.1938 23.4587 29.4179 23.474 28.6572 23.2342C27.9249 23.0032 27.2034 22.5302 26.5909 21.8524C26.1725 21.3903 25.8041 20.8345 25.5164 20.1937C25.4183 19.9735 25.5164 19.7142 25.7365 19.6161C25.9567 19.518 26.216 19.6161 26.3141 19.8362C26.5626 20.392 26.8808 20.8715 27.2383 21.2661C27.744 21.824 28.3303 22.2098 28.9209 22.3973C29.4811 22.5738 30.0413 22.5673 30.5273 22.3493L30.5339 22.3471C28.5962 20.9304 28.012 17.9182 27.4693 15.1261L27.38 14.664L27.2971 14.2259C27.0465 12.8854 26.7522 11.3161 25.7017 10.5598C25.196 10.1958 24.5813 10.0498 23.9318 10.15C23.2954 10.2503 22.624 10.5881 21.9811 11.1919Z" fill="black"/>
<path d="M15.4008 10.5554C15.5774 10.7211 15.5861 10.9979 15.4204 11.1744C15.2548 11.351 14.978 11.3597 14.8014 11.1941C14.1584 10.5903 13.4871 10.2525 12.8507 10.1522C12.2033 10.0519 11.5865 10.198 11.0808 10.562C10.0302 11.3183 9.73599 12.8876 9.48533 14.2281L9.4025 14.6662L9.31314 15.1283C8.7726 17.9203 8.18846 20.9348 6.2486 22.3493L6.25514 22.3515C6.74119 22.5695 7.30136 22.576 7.86152 22.3995C8.45219 22.212 9.03851 21.8262 9.54418 21.2682C9.90164 20.8737 10.2177 20.3942 10.4683 19.8406C10.5664 19.6204 10.8258 19.5202 11.0459 19.6204C11.2661 19.7185 11.3663 19.9779 11.2661 20.198C10.9784 20.8389 10.61 21.3947 10.1915 21.8567C9.57687 22.5346 8.85542 23.0076 8.12525 23.2386C7.36456 23.4784 6.58862 23.4631 5.89986 23.1536C5.64049 23.0381 5.39419 22.879 5.16751 22.6763C5.11738 22.637 5.07379 22.5847 5.04328 22.5215C4.93865 22.3035 5.0302 22.042 5.24816 21.9374C7.29482 20.9435 7.89857 17.8288 8.45437 14.9648L8.54374 14.4984C8.58515 14.2847 8.60694 14.1758 8.62656 14.0668C8.90773 12.5694 9.23685 10.8148 10.573 9.85359C11.2661 9.35446 12.1052 9.15176 12.9858 9.28907C13.7901 9.41331 14.6249 9.82526 15.4008 10.5554ZM18.3912 4.12121C19.2849 4.12121 20.0957 4.48302 20.682 5.06934C21.2683 5.65566 21.6301 6.46429 21.6301 7.36011C21.6301 8.25376 21.2683 9.06457 20.682 9.64871C20.0957 10.235 19.2871 10.5968 18.3912 10.5968C17.4954 10.5968 16.6868 10.235 16.1005 9.64871C15.5141 9.06239 15.1523 8.25376 15.1523 7.36011C15.1523 6.46647 15.5141 5.65566 16.1005 5.06934C16.6868 4.4852 17.4976 4.12121 18.3912 4.12121ZM20.0608 5.69053C19.6336 5.26333 19.0429 4.99959 18.3912 4.99959C17.7395 4.99959 17.1489 5.26333 16.7216 5.69053C16.2944 6.11773 16.0307 6.70841 16.0307 7.36011C16.0307 8.01182 16.2944 8.60249 16.7216 9.0297C17.1489 9.4569 17.7395 9.72064 18.3912 9.72064C19.0429 9.72064 19.6336 9.4569 20.0608 9.0297C20.488 8.60249 20.7518 8.01182 20.7518 7.36011C20.7518 6.70841 20.488 6.11773 20.0608 5.69053ZM14.8951 13.062C15.4793 12.1683 16.216 11.5798 17.0028 11.266C17.6044 11.0262 18.2321 10.9478 18.8402 11.0153C19.4483 11.0829 20.0412 11.2987 20.5708 11.6452C21.3119 12.1291 21.9331 12.8702 22.3167 13.8314C22.9575 15.4399 22.951 16.9155 22.9444 18.3824C22.9401 19.6161 22.9335 20.8432 23.3477 22.0943C23.5024 22.5651 23.703 22.9988 23.9492 23.3934C24.1955 23.7879 24.4854 24.1453 24.8211 24.4657C24.978 24.6161 24.9998 24.8559 24.8799 25.0302C24.6402 25.4073 24.3154 25.7364 23.9253 26.0198C22.6306 26.9657 20.5839 27.4082 18.5285 27.3995C16.4819 27.3886 14.4025 26.9287 13.0359 26.0656C12.5717 25.7735 12.1837 25.4313 11.9003 25.039C11.7587 24.845 11.8023 24.5703 11.9962 24.4287L12.0137 24.4156V24.4134C12.4627 24.1192 12.8245 23.7247 13.1057 23.243C13.3977 22.746 13.6113 22.151 13.7574 21.4709C13.9688 20.4814 13.9623 19.3654 13.9579 18.2538C13.947 16.3903 13.9383 14.5289 14.8951 13.062ZM17.3254 12.079C16.6999 12.3275 16.107 12.807 15.6275 13.5393C14.8123 14.7882 14.821 16.5189 14.8297 18.2538C14.8363 19.4177 14.8428 20.5838 14.6118 21.6562C14.4483 22.4234 14.202 23.1035 13.8576 23.6876C13.5917 24.1388 13.2713 24.5289 12.8899 24.8515C13.0643 25.0215 13.2691 25.1785 13.5002 25.3245C14.7295 26.1004 16.6345 26.5146 18.5307 26.5255C20.4183 26.5342 22.2731 26.144 23.4109 25.3136C23.6158 25.1654 23.7945 25.0019 23.9449 24.8254C23.6659 24.5268 23.4196 24.202 23.2038 23.8554C22.9205 23.3999 22.6894 22.9029 22.5129 22.3668C22.0573 20.9892 22.0639 19.688 22.0682 18.3781C22.0748 16.9962 22.0813 15.6056 21.5015 14.154C21.1899 13.3693 20.6864 12.7677 20.0913 12.3798C19.675 12.1073 19.2129 11.9395 18.74 11.8872C18.2735 11.8327 17.7875 11.8937 17.3254 12.079ZM14.396 4.38712C14.5268 4.58982 14.4701 4.8601 14.2674 4.99087C14.0647 5.12165 13.7944 5.06498 13.6637 4.86228C13.5612 4.70534 13.4827 4.54187 13.4304 4.37186C13.3759 4.19967 13.3476 4.0253 13.3476 3.84876C13.3476 3.00742 13.9535 2.26854 14.9322 1.75633C15.8258 1.28989 17.0508 1 18.3912 1C19.7317 1 20.9566 1.28989 21.8503 1.75851C22.8289 2.27072 23.4349 3.0096 23.4349 3.85094C23.4349 3.93594 23.4283 4.02095 23.4152 4.10813L23.4131 4.12339C23.4 4.20403 23.3825 4.2825 23.3586 4.35879C23.2888 4.58982 23.0447 4.72278 22.8115 4.65085C22.5805 4.58111 22.4475 4.33699 22.5194 4.10377C22.5325 4.06454 22.5412 4.0253 22.5478 3.98825L22.5499 3.97517C22.5565 3.93376 22.5587 3.89235 22.5587 3.84876C22.5587 3.35834 22.1336 2.89191 21.4449 2.53227C20.6711 2.12686 19.5922 1.87838 18.3891 1.87838C17.1859 1.87838 16.107 2.12904 15.3332 2.53227C14.6467 2.89191 14.2195 3.36052 14.2195 3.84876C14.2195 3.93812 14.2325 4.02748 14.2609 4.11249C14.2936 4.20621 14.3372 4.29776 14.396 4.38712ZM24.0081 21.4797C23.9231 21.253 24.0364 21.0001 24.2609 20.9151C24.4876 20.8301 24.7404 20.9435 24.8255 21.168C24.9933 21.6061 25.2439 21.9548 25.5731 22.2207C25.9131 22.4932 26.3403 22.685 26.8503 22.7983C27.0857 22.8506 27.2339 23.0839 27.1816 23.3193C27.1293 23.5546 26.8961 23.7029 26.6607 23.6506C26.0155 23.5067 25.4663 23.2582 25.0238 22.9008C24.5726 22.5368 24.2326 22.066 24.0081 21.4797ZM12.1946 21.168C12.2796 20.9413 12.5346 20.828 12.7591 20.9151C12.9858 21.0023 13.0991 21.2552 13.0119 21.4797C12.7874 22.066 12.4474 22.5389 11.9941 22.9029C11.5494 23.2604 11.0023 23.5089 10.3572 23.6527C10.1218 23.705 9.88856 23.5568 9.83625 23.3214C9.78394 23.086 9.93215 22.8528 10.1675 22.8005C10.6776 22.6872 11.107 22.4954 11.4448 22.2229C11.7761 21.9548 12.0268 21.6061 12.1946 21.168ZM21.9811 11.1919C21.8045 11.3575 21.5277 11.3488 21.362 11.1723C21.1964 10.9957 21.2051 10.7189 21.3817 10.5533C22.1576 9.82308 22.9924 9.41113 23.7967 9.28471C24.6772 9.1474 25.5164 9.3501 26.2095 9.84923C27.5456 10.8104 27.8747 12.565 28.1559 14.0624C28.1755 14.1692 28.1973 14.2804 28.2387 14.494L28.3281 14.9604C28.8839 17.8244 29.4876 20.9391 31.5343 21.933C31.7523 22.0376 31.8438 22.2992 31.7392 22.5172C31.7087 22.5782 31.6673 22.6305 31.615 22.6719C31.3883 22.8746 31.142 23.0315 30.8826 23.1492C30.1938 23.4587 29.4179 23.474 28.6572 23.2342C27.9249 23.0032 27.2034 22.5302 26.5909 21.8524C26.1725 21.3903 25.8041 20.8345 25.5164 20.1937C25.4183 19.9735 25.5164 19.7142 25.7365 19.6161C25.9567 19.518 26.216 19.6161 26.3141 19.8362C26.5626 20.392 26.8808 20.8715 27.2383 21.2661C27.744 21.824 28.3303 22.2098 28.9209 22.3973C29.4811 22.5738 30.0413 22.5673 30.5273 22.3493L30.5339 22.3471C28.5962 20.9304 28.012 17.9182 27.4693 15.1261L27.38 14.664L27.2971 14.2259C27.0465 12.8854 26.7522 11.3161 25.7017 10.5598C25.196 10.1958 24.5813 10.0498 23.9318 10.15C23.2954 10.2503 22.624 10.5881 21.9811 11.1919Z" stroke="white" stroke-width="0.5" mask="url(#path-1-outside-1_562_165)"/>
<path d="M19.6012 17.9539C19.2935 17.7838 18.9663 17.6542 18.6423 17.5198C18.4544 17.442 18.2746 17.3513 18.1158 17.225C17.8032 16.9755 17.8631 16.5705 18.2292 16.4102C18.3329 16.3648 18.4414 16.3502 18.5516 16.3438C18.976 16.3211 19.3793 16.3988 19.7632 16.5835C19.9544 16.6758 20.0175 16.6467 20.0823 16.4474C20.1504 16.2368 20.2071 16.023 20.2702 15.8108C20.3124 15.6683 20.2605 15.5743 20.1261 15.5144C19.8799 15.4059 19.6272 15.3281 19.3615 15.286C19.0148 15.2325 19.0148 15.2309 19.0132 14.8826C19.0116 14.3918 19.0116 14.3918 18.5192 14.3918C18.4479 14.3918 18.3766 14.3902 18.3054 14.3918C18.0753 14.3983 18.0365 14.4388 18.03 14.6704C18.0267 14.7741 18.03 14.8778 18.0284 14.9831C18.0267 15.2909 18.0251 15.286 17.7303 15.3929C17.0176 15.6521 16.577 16.138 16.53 16.9156C16.4879 17.604 16.8475 18.0689 17.4128 18.4074C17.7611 18.6164 18.1466 18.7395 18.5159 18.9031C18.6601 18.9663 18.7978 19.0392 18.9177 19.1396C19.2724 19.4328 19.2076 19.9204 18.7865 20.1051C18.5613 20.2039 18.3232 20.2282 18.0786 20.1974C17.7011 20.1504 17.3399 20.0516 16.9998 19.875C16.8005 19.7714 16.7422 19.7989 16.6742 20.0143C16.6158 20.2006 16.564 20.3885 16.5122 20.5764C16.4425 20.8291 16.4684 20.8891 16.7098 21.0073C17.0176 21.1563 17.3464 21.2325 17.6817 21.2859C17.9441 21.328 17.9522 21.3394 17.9555 21.6115C17.9571 21.7346 17.9571 21.8594 17.9587 21.9825C17.9603 22.138 18.0348 22.2287 18.1952 22.2319C18.3766 22.2352 18.5597 22.2352 18.7411 22.2303C18.8901 22.2271 18.9663 22.1461 18.9663 21.9954C18.9663 21.827 18.9744 21.6569 18.9679 21.4884C18.9598 21.3167 19.0343 21.2292 19.1995 21.1839C19.5802 21.0802 19.9041 20.8761 20.1536 20.5716C20.8469 19.7292 20.5829 18.4965 19.6012 17.9539Z" fill="black"/>
</g>
<defs>
<filter id="filter0_d_562_165" x="0.75" y="0.75" width="35.2827" height="34.8997" filterUnits="userSpaceOnUse" color-interpolation-filters="sRGB">
<feFlood flood-opacity="0" result="BackgroundImageFix"/>
<feColorMatrix in="SourceAlpha" type="matrix" values="0 0 0 0 0 0 0 0 0 0 0 0 0 0 0 0 0 0 127 0" result="hardAlpha"/>
<feOffset dy="4"/>
<feGaussianBlur stdDeviation="2"/>
<feComposite in2="hardAlpha" operator="out"/>
<feColorMatrix type="matrix" values="0 0 0 0 0 0 0 0 0 0 0 0 0 0 0 0 0 0 0.25 0"/>
<feBlend mode="normal" in2="BackgroundImageFix" result="effect1_dropShadow_562_165"/>
<feBlend mode="normal" in="SourceGraphic" in2="effect1_dropShadow_562_165" result="shape"/>
</filter>
</defs>
</svg>
