<svg width="46" height="46" viewBox="0 0 46 46" fill="none" xmlns="http://www.w3.org/2000/svg">
<g filter="url(#filter0_d_280_81)">
<path d="M17.4594 37.2041C20.0031 37.2041 22.0651 35.1421 22.0651 32.5984C22.0651 30.0547 20.0031 27.9927 17.4594 27.9927C14.9158 27.9927 12.8537 30.0547 12.8537 32.5984C12.8537 35.1421 14.9158 37.2041 17.4594 37.2041Z" fill="white"/>
<path d="M32.2157 27.948C29.6596 27.6965 27.3837 29.5646 27.1321 32.1206C26.8806 34.6767 28.7487 36.9526 31.3048 37.2042C31.6076 37.2339 31.9128 37.2339 32.2157 37.2042C34.7717 36.9526 36.6398 34.6767 36.3883 32.1206C36.171 29.9123 34.4239 28.1653 32.2157 27.948Z" fill="white"/>
<path d="M41.6954 10.4195C41.4666 10.0769 41.0789 9.87458 40.6669 9.88288H35.5693V9.79345C35.5697 4.38503 31.1856 0.000349363 25.7772 2.08764e-08C20.3688 -0.000349321 15.9842 4.38372 15.9838 9.79214C15.9838 9.79258 15.9838 9.79301 15.9838 9.79345V9.88288H12.183L10.8862 3.9804C10.7422 3.37997 10.2069 2.95543 9.58947 2.95194H4V5.63488H8.51629L12.6749 24.7285C12.7846 25.3563 13.3344 25.8112 13.9716 25.8017H37.358C37.9754 25.7981 38.5106 25.3737 38.6547 24.7732L41.9637 11.5374C42.0607 11.1432 41.9607 10.7265 41.6954 10.4195ZM25.7766 16.9033C21.85 16.9033 18.6668 13.7201 18.6668 9.79345C18.6668 5.86685 21.85 2.68364 25.7766 2.68364C29.7032 2.68364 32.8864 5.86685 32.8864 9.79345C32.862 13.7099 29.693 16.8788 25.7766 16.9033Z" fill="white"/>
<path d="M24.7034 9.92759L22.244 7.42351L20.3212 9.30157L23.7196 12.7447C23.9673 12.9974 24.3048 13.1421 24.6587 13.1471C25.0079 13.1642 25.3483 13.0346 25.5977 12.7894L31.2319 7.46823L29.3985 5.50073L24.7034 9.92759Z" fill="white"/>
</g>
<defs>
<filter id="filter0_d_280_81" x="0" y="0" width="46" height="45.2266" filterUnits="userSpaceOnUse" color-interpolation-filters="sRGB">
<feFlood flood-opacity="0" result="BackgroundImageFix"/>
<feColorMatrix in="SourceAlpha" type="matrix" values="0 0 0 0 0 0 0 0 0 0 0 0 0 0 0 0 0 0 127 0" result="hardAlpha"/>
<feOffset dy="4"/>
<feGaussianBlur stdDeviation="2"/>
<feComposite in2="hardAlpha" operator="out"/>
<feColorMatrix type="matrix" values="0 0 0 0 0 0 0 0 0 0 0 0 0 0 0 0 0 0 0.25 0"/>
<feBlend mode="normal" in2="BackgroundImageFix" result="effect1_dropShadow_280_81"/>
<feBlend mode="normal" in="SourceGraphic" in2="effect1_dropShadow_280_81" result="shape"/>
</filter>
</defs>
</svg>
