<svg width="34" height="33" viewBox="0 0 34 33" fill="none" xmlns="http://www.w3.org/2000/svg">
<mask id="path-1-outside-1_373_153" maskUnits="userSpaceOnUse" x="0" y="0" width="34" height="33" fill="black">
<rect fill="white" width="34" height="33"/>
<path d="M13.3707 12.3652C13.5807 12.5622 13.591 12.8915 13.394 13.1014C13.197 13.3114 12.8678 13.3218 12.6578 13.1248C11.893 12.4067 11.0945 12.0048 10.3375 11.8856C9.56759 11.7663 8.83394 11.94 8.23249 12.373C6.98294 13.2725 6.63297 15.1391 6.33484 16.7334L6.23632 17.2545L6.13003 17.8041C5.48711 21.125 4.79234 24.7103 2.48508 26.3928L2.49286 26.3954C3.07097 26.6546 3.73723 26.6624 4.40348 26.4524C5.10603 26.2295 5.80339 25.7706 6.40483 25.107C6.82999 24.6377 7.20589 24.0674 7.50402 23.4089C7.62068 23.1471 7.92918 23.0278 8.19101 23.1471C8.45285 23.2638 8.5721 23.5723 8.45285 23.8341C8.11065 24.5963 7.67253 25.2573 7.17478 25.8069C6.44372 26.6132 5.58563 27.1757 4.71716 27.4505C3.81241 27.7357 2.8895 27.7175 2.0703 27.3494C1.7618 27.212 1.46885 27.0228 1.19924 26.7817C1.13961 26.735 1.08777 26.6728 1.05147 26.5976C0.927035 26.3384 1.03592 26.0273 1.29516 25.9028C3.72945 24.7207 4.44755 21.0161 5.10862 17.6097L5.21491 17.0549C5.26416 16.8008 5.29009 16.6712 5.31342 16.5416C5.64784 14.7606 6.0393 12.6737 7.62846 11.5304C8.45285 10.9368 9.45093 10.6957 10.4983 10.859C11.4549 11.0068 12.4478 11.4967 13.3707 12.3652ZM16.9275 4.71235C17.9904 4.71235 18.9548 5.1427 19.6521 5.84006C20.3495 6.53742 20.7798 7.49921 20.7798 8.5647C20.7798 9.62759 20.3495 10.592 19.6521 11.2867C18.9548 11.9841 17.993 12.4145 16.9275 12.4145C15.862 12.4145 14.9002 11.9841 14.2029 11.2867C13.5055 10.5894 13.0751 9.62759 13.0751 8.5647C13.0751 7.50181 13.5055 6.53742 14.2029 5.84006C14.9002 5.14529 15.8646 4.71235 16.9275 4.71235ZM18.9133 6.5789C18.4052 6.07079 17.7026 5.7571 16.9275 5.7571C16.1524 5.7571 15.4498 6.07079 14.9417 6.5789C14.4336 7.08702 14.1199 7.78956 14.1199 8.5647C14.1199 9.33984 14.4336 10.0424 14.9417 10.5505C15.4498 11.0586 16.1524 11.3723 16.9275 11.3723C17.7026 11.3723 18.4052 11.0586 18.9133 10.5505C19.4214 10.0424 19.7351 9.33984 19.7351 8.5647C19.7351 7.78956 19.4214 7.08702 18.9133 6.5789ZM12.7692 15.3465C13.464 14.2836 14.3402 13.5836 15.2761 13.2103C15.9916 12.9252 16.7382 12.8318 17.4615 12.9122C18.1848 12.9926 18.89 13.2492 19.5199 13.6614C20.4013 14.2369 21.1402 15.1184 21.5964 16.2616C22.3586 18.1748 22.3508 19.9299 22.3431 21.6746C22.3379 23.1419 22.3301 24.6014 22.8227 26.0895C23.0067 26.6495 23.2452 27.1654 23.5382 27.6346C23.8311 28.1038 24.1759 28.529 24.5751 28.9101C24.7618 29.0889 24.7877 29.3741 24.6451 29.5815C24.36 30.03 23.9737 30.4214 23.5097 30.7585C21.9698 31.8836 19.5355 32.4098 17.0908 32.3995C14.6565 32.3865 12.1833 31.8395 10.5579 30.8129C10.0057 30.4655 9.54426 30.0585 9.20724 29.5919C9.03874 29.3611 9.09058 29.0345 9.32131 28.866L9.34205 28.8504V28.8478C9.87609 28.4979 10.3064 28.0286 10.6409 27.4557C10.9882 26.8646 11.2423 26.1569 11.416 25.3481C11.6675 24.1711 11.6597 22.8438 11.6545 21.5216C11.6415 19.3051 11.6312 17.0912 12.7692 15.3465ZM15.6598 14.1773C14.9158 14.4728 14.2106 15.0432 13.6403 15.9142C12.6707 17.3997 12.6811 19.4581 12.6915 21.5216C12.6992 22.906 12.707 24.2929 12.4322 25.5684C12.2378 26.481 11.9448 27.2898 11.5352 27.9846C11.219 28.5212 10.8379 28.9852 10.3842 29.3689C10.5916 29.5711 10.8353 29.7578 11.1101 29.9315C12.5722 30.8544 14.838 31.3469 17.0934 31.3599C19.3384 31.3703 21.5446 30.9062 22.8978 29.9185C23.1415 29.7422 23.3541 29.5478 23.533 29.3378C23.2012 28.9826 22.9082 28.5964 22.6516 28.1842C22.3146 27.6424 22.0398 27.0513 21.8298 26.4136C21.288 24.7751 21.2957 23.2275 21.3009 21.6694C21.3087 20.0258 21.3165 18.3718 20.6269 16.6453C20.2562 15.712 19.6573 14.9965 18.9496 14.5351C18.4544 14.211 17.9048 14.0114 17.3423 13.9492C16.7875 13.8844 16.2094 13.9569 15.6598 14.1773ZM12.1756 5.02863C12.3311 5.26973 12.2637 5.59119 12.0226 5.74673C11.7815 5.90228 11.4601 5.83487 11.3045 5.59378C11.1827 5.40712 11.0893 5.21269 11.0271 5.01048C10.9623 4.80568 10.9286 4.59829 10.9286 4.3883C10.9286 3.38762 11.6493 2.50879 12.8133 1.89957C13.8762 1.34479 15.3331 1 16.9275 1C18.5218 1 19.9788 1.34479 21.0417 1.90216C22.2057 2.51138 22.9264 3.39022 22.9264 4.39089C22.9264 4.492 22.9186 4.5931 22.903 4.6968L22.9004 4.71495C22.8849 4.81087 22.8641 4.90419 22.8356 4.99493C22.7527 5.26973 22.4623 5.42786 22.1849 5.34231C21.9101 5.25936 21.752 4.969 21.8375 4.69161C21.8531 4.64495 21.8635 4.59829 21.8712 4.55422L21.8738 4.53866C21.8816 4.48941 21.8842 4.44015 21.8842 4.3883C21.8842 3.80501 21.3787 3.25023 20.5595 2.82248C19.6392 2.34028 18.3559 2.04475 16.9249 2.04475C15.4939 2.04475 14.2106 2.34288 13.2903 2.82248C12.4737 3.25023 11.9656 3.8076 11.9656 4.3883C11.9656 4.49459 11.9811 4.60088 12.0148 4.70198C12.0537 4.81346 12.1056 4.92234 12.1756 5.02863ZM23.6082 25.3584C23.5071 25.0888 23.6419 24.7881 23.9089 24.687C24.1785 24.5859 24.4792 24.7207 24.5803 24.9877C24.7799 25.5088 25.0781 25.9236 25.4695 26.2399C25.874 26.5639 26.3821 26.792 26.9887 26.9269C27.2687 26.9891 27.445 27.2665 27.3827 27.5464C27.3205 27.8264 27.0431 28.0027 26.7632 27.9405C25.9958 27.7694 25.3425 27.4739 24.8162 27.0487C24.2796 26.6158 23.8752 26.0558 23.6082 25.3584ZM9.55722 24.9877C9.65833 24.7181 9.96164 24.5833 10.2287 24.687C10.4983 24.7907 10.6331 25.0914 10.5294 25.3584C10.2624 26.0558 9.85794 26.6184 9.31872 27.0513C8.78986 27.4764 8.13916 27.772 7.37181 27.9431C7.09183 28.0053 6.81444 27.829 6.75222 27.549C6.69 27.2691 6.86628 26.9917 7.14627 26.9294C7.75289 26.7946 8.2636 26.5665 8.66543 26.2425C9.05948 25.9236 9.3576 25.5088 9.55722 24.9877ZM21.1972 13.1222C20.9872 13.3192 20.658 13.3088 20.461 13.0989C20.2639 12.8889 20.2743 12.5596 20.4843 12.3626C21.4072 11.4941 22.4001 11.0042 23.3567 10.8538C24.404 10.6905 25.4021 10.9316 26.2265 11.5253C27.8157 12.6685 28.2071 14.7554 28.5416 16.5364C28.5649 16.6634 28.5908 16.7957 28.6401 17.0497L28.7464 17.6045C29.4074 21.0109 30.1255 24.7155 32.5598 25.8977C32.8191 26.0221 32.9279 26.3332 32.8035 26.5924C32.7672 26.665 32.718 26.7272 32.6557 26.7765C32.3861 27.0176 32.0932 27.2042 31.7847 27.3442C30.9655 27.7124 30.0426 27.7305 29.1378 27.4453C28.2668 27.1705 27.4087 26.608 26.6802 25.8017C26.1824 25.2521 25.7443 24.5911 25.4021 23.8289C25.2855 23.5671 25.4021 23.2586 25.664 23.1419C25.9258 23.0253 26.2343 23.1419 26.351 23.4037C26.6465 24.0648 27.025 24.6352 27.4501 25.1044C28.0516 25.768 28.749 26.2269 29.4515 26.4498C30.1178 26.6598 30.784 26.6521 31.3621 26.3928L31.3699 26.3902C29.0652 24.7051 28.3705 21.1224 27.7249 17.8015L27.6187 17.2519L27.5201 16.7308C27.222 15.1365 26.872 13.27 25.6225 12.3704C25.021 11.9374 24.29 11.7638 23.5174 11.883C22.7604 12.0023 21.962 12.4041 21.1972 13.1222Z"/>
</mask>
<path d="M13.3707 12.3652C13.5807 12.5622 13.591 12.8915 13.394 13.1014C13.197 13.3114 12.8678 13.3218 12.6578 13.1248C11.893 12.4067 11.0945 12.0048 10.3375 11.8856C9.56759 11.7663 8.83394 11.94 8.23249 12.373C6.98294 13.2725 6.63297 15.1391 6.33484 16.7334L6.23632 17.2545L6.13003 17.8041C5.48711 21.125 4.79234 24.7103 2.48508 26.3928L2.49286 26.3954C3.07097 26.6546 3.73723 26.6624 4.40348 26.4524C5.10603 26.2295 5.80339 25.7706 6.40483 25.107C6.82999 24.6377 7.20589 24.0674 7.50402 23.4089C7.62068 23.1471 7.92918 23.0278 8.19101 23.1471C8.45285 23.2638 8.5721 23.5723 8.45285 23.8341C8.11065 24.5963 7.67253 25.2573 7.17478 25.8069C6.44372 26.6132 5.58563 27.1757 4.71716 27.4505C3.81241 27.7357 2.8895 27.7175 2.0703 27.3494C1.7618 27.212 1.46885 27.0228 1.19924 26.7817C1.13961 26.735 1.08777 26.6728 1.05147 26.5976C0.927035 26.3384 1.03592 26.0273 1.29516 25.9028C3.72945 24.7207 4.44755 21.0161 5.10862 17.6097L5.21491 17.0549C5.26416 16.8008 5.29009 16.6712 5.31342 16.5416C5.64784 14.7606 6.0393 12.6737 7.62846 11.5304C8.45285 10.9368 9.45093 10.6957 10.4983 10.859C11.4549 11.0068 12.4478 11.4967 13.3707 12.3652ZM16.9275 4.71235C17.9904 4.71235 18.9548 5.1427 19.6521 5.84006C20.3495 6.53742 20.7798 7.49921 20.7798 8.5647C20.7798 9.62759 20.3495 10.592 19.6521 11.2867C18.9548 11.9841 17.993 12.4145 16.9275 12.4145C15.862 12.4145 14.9002 11.9841 14.2029 11.2867C13.5055 10.5894 13.0751 9.62759 13.0751 8.5647C13.0751 7.50181 13.5055 6.53742 14.2029 5.84006C14.9002 5.14529 15.8646 4.71235 16.9275 4.71235ZM18.9133 6.5789C18.4052 6.07079 17.7026 5.7571 16.9275 5.7571C16.1524 5.7571 15.4498 6.07079 14.9417 6.5789C14.4336 7.08702 14.1199 7.78956 14.1199 8.5647C14.1199 9.33984 14.4336 10.0424 14.9417 10.5505C15.4498 11.0586 16.1524 11.3723 16.9275 11.3723C17.7026 11.3723 18.4052 11.0586 18.9133 10.5505C19.4214 10.0424 19.7351 9.33984 19.7351 8.5647C19.7351 7.78956 19.4214 7.08702 18.9133 6.5789ZM12.7692 15.3465C13.464 14.2836 14.3402 13.5836 15.2761 13.2103C15.9916 12.9252 16.7382 12.8318 17.4615 12.9122C18.1848 12.9926 18.89 13.2492 19.5199 13.6614C20.4013 14.2369 21.1402 15.1184 21.5964 16.2616C22.3586 18.1748 22.3508 19.9299 22.3431 21.6746C22.3379 23.1419 22.3301 24.6014 22.8227 26.0895C23.0067 26.6495 23.2452 27.1654 23.5382 27.6346C23.8311 28.1038 24.1759 28.529 24.5751 28.9101C24.7618 29.0889 24.7877 29.3741 24.6451 29.5815C24.36 30.03 23.9737 30.4214 23.5097 30.7585C21.9698 31.8836 19.5355 32.4098 17.0908 32.3995C14.6565 32.3865 12.1833 31.8395 10.5579 30.8129C10.0057 30.4655 9.54426 30.0585 9.20724 29.5919C9.03874 29.3611 9.09058 29.0345 9.32131 28.866L9.34205 28.8504V28.8478C9.87609 28.4979 10.3064 28.0286 10.6409 27.4557C10.9882 26.8646 11.2423 26.1569 11.416 25.3481C11.6675 24.1711 11.6597 22.8438 11.6545 21.5216C11.6415 19.3051 11.6312 17.0912 12.7692 15.3465ZM15.6598 14.1773C14.9158 14.4728 14.2106 15.0432 13.6403 15.9142C12.6707 17.3997 12.6811 19.4581 12.6915 21.5216C12.6992 22.906 12.707 24.2929 12.4322 25.5684C12.2378 26.481 11.9448 27.2898 11.5352 27.9846C11.219 28.5212 10.8379 28.9852 10.3842 29.3689C10.5916 29.5711 10.8353 29.7578 11.1101 29.9315C12.5722 30.8544 14.838 31.3469 17.0934 31.3599C19.3384 31.3703 21.5446 30.9062 22.8978 29.9185C23.1415 29.7422 23.3541 29.5478 23.533 29.3378C23.2012 28.9826 22.9082 28.5964 22.6516 28.1842C22.3146 27.6424 22.0398 27.0513 21.8298 26.4136C21.288 24.7751 21.2957 23.2275 21.3009 21.6694C21.3087 20.0258 21.3165 18.3718 20.6269 16.6453C20.2562 15.712 19.6573 14.9965 18.9496 14.5351C18.4544 14.211 17.9048 14.0114 17.3423 13.9492C16.7875 13.8844 16.2094 13.9569 15.6598 14.1773ZM12.1756 5.02863C12.3311 5.26973 12.2637 5.59119 12.0226 5.74673C11.7815 5.90228 11.4601 5.83487 11.3045 5.59378C11.1827 5.40712 11.0893 5.21269 11.0271 5.01048C10.9623 4.80568 10.9286 4.59829 10.9286 4.3883C10.9286 3.38762 11.6493 2.50879 12.8133 1.89957C13.8762 1.34479 15.3331 1 16.9275 1C18.5218 1 19.9788 1.34479 21.0417 1.90216C22.2057 2.51138 22.9264 3.39022 22.9264 4.39089C22.9264 4.492 22.9186 4.5931 22.903 4.6968L22.9004 4.71495C22.8849 4.81087 22.8641 4.90419 22.8356 4.99493C22.7527 5.26973 22.4623 5.42786 22.1849 5.34231C21.9101 5.25936 21.752 4.969 21.8375 4.69161C21.8531 4.64495 21.8635 4.59829 21.8712 4.55422L21.8738 4.53866C21.8816 4.48941 21.8842 4.44015 21.8842 4.3883C21.8842 3.80501 21.3787 3.25023 20.5595 2.82248C19.6392 2.34028 18.3559 2.04475 16.9249 2.04475C15.4939 2.04475 14.2106 2.34288 13.2903 2.82248C12.4737 3.25023 11.9656 3.8076 11.9656 4.3883C11.9656 4.49459 11.9811 4.60088 12.0148 4.70198C12.0537 4.81346 12.1056 4.92234 12.1756 5.02863ZM23.6082 25.3584C23.5071 25.0888 23.6419 24.7881 23.9089 24.687C24.1785 24.5859 24.4792 24.7207 24.5803 24.9877C24.7799 25.5088 25.0781 25.9236 25.4695 26.2399C25.874 26.5639 26.3821 26.792 26.9887 26.9269C27.2687 26.9891 27.445 27.2665 27.3827 27.5464C27.3205 27.8264 27.0431 28.0027 26.7632 27.9405C25.9958 27.7694 25.3425 27.4739 24.8162 27.0487C24.2796 26.6158 23.8752 26.0558 23.6082 25.3584ZM9.55722 24.9877C9.65833 24.7181 9.96164 24.5833 10.2287 24.687C10.4983 24.7907 10.6331 25.0914 10.5294 25.3584C10.2624 26.0558 9.85794 26.6184 9.31872 27.0513C8.78986 27.4764 8.13916 27.772 7.37181 27.9431C7.09183 28.0053 6.81444 27.829 6.75222 27.549C6.69 27.2691 6.86628 26.9917 7.14627 26.9294C7.75289 26.7946 8.2636 26.5665 8.66543 26.2425C9.05948 25.9236 9.3576 25.5088 9.55722 24.9877ZM21.1972 13.1222C20.9872 13.3192 20.658 13.3088 20.461 13.0989C20.2639 12.8889 20.2743 12.5596 20.4843 12.3626C21.4072 11.4941 22.4001 11.0042 23.3567 10.8538C24.404 10.6905 25.4021 10.9316 26.2265 11.5253C27.8157 12.6685 28.2071 14.7554 28.5416 16.5364C28.5649 16.6634 28.5908 16.7957 28.6401 17.0497L28.7464 17.6045C29.4074 21.0109 30.1255 24.7155 32.5598 25.8977C32.8191 26.0221 32.9279 26.3332 32.8035 26.5924C32.7672 26.665 32.718 26.7272 32.6557 26.7765C32.3861 27.0176 32.0932 27.2042 31.7847 27.3442C30.9655 27.7124 30.0426 27.7305 29.1378 27.4453C28.2668 27.1705 27.4087 26.608 26.6802 25.8017C26.1824 25.2521 25.7443 24.5911 25.4021 23.8289C25.2855 23.5671 25.4021 23.2586 25.664 23.1419C25.9258 23.0253 26.2343 23.1419 26.351 23.4037C26.6465 24.0648 27.025 24.6352 27.4501 25.1044C28.0516 25.768 28.749 26.2269 29.4515 26.4498C30.1178 26.6598 30.784 26.6521 31.3621 26.3928L31.3699 26.3902C29.0652 24.7051 28.3705 21.1224 27.7249 17.8015L27.6187 17.2519L27.5201 16.7308C27.222 15.1365 26.872 13.27 25.6225 12.3704C25.021 11.9374 24.29 11.7638 23.5174 11.883C22.7604 12.0023 21.962 12.4041 21.1972 13.1222Z" fill="white"/>
<path d="M13.3707 12.3652C13.5807 12.5622 13.591 12.8915 13.394 13.1014C13.197 13.3114 12.8678 13.3218 12.6578 13.1248C11.893 12.4067 11.0945 12.0048 10.3375 11.8856C9.56759 11.7663 8.83394 11.94 8.23249 12.373C6.98294 13.2725 6.63297 15.1391 6.33484 16.7334L6.23632 17.2545L6.13003 17.8041C5.48711 21.125 4.79234 24.7103 2.48508 26.3928L2.49286 26.3954C3.07097 26.6546 3.73723 26.6624 4.40348 26.4524C5.10603 26.2295 5.80339 25.7706 6.40483 25.107C6.82999 24.6377 7.20589 24.0674 7.50402 23.4089C7.62068 23.1471 7.92918 23.0278 8.19101 23.1471C8.45285 23.2638 8.5721 23.5723 8.45285 23.8341C8.11065 24.5963 7.67253 25.2573 7.17478 25.8069C6.44372 26.6132 5.58563 27.1757 4.71716 27.4505C3.81241 27.7357 2.8895 27.7175 2.0703 27.3494C1.7618 27.212 1.46885 27.0228 1.19924 26.7817C1.13961 26.735 1.08777 26.6728 1.05147 26.5976C0.927035 26.3384 1.03592 26.0273 1.29516 25.9028C3.72945 24.7207 4.44755 21.0161 5.10862 17.6097L5.21491 17.0549C5.26416 16.8008 5.29009 16.6712 5.31342 16.5416C5.64784 14.7606 6.0393 12.6737 7.62846 11.5304C8.45285 10.9368 9.45093 10.6957 10.4983 10.859C11.4549 11.0068 12.4478 11.4967 13.3707 12.3652ZM16.9275 4.71235C17.9904 4.71235 18.9548 5.1427 19.6521 5.84006C20.3495 6.53742 20.7798 7.49921 20.7798 8.5647C20.7798 9.62759 20.3495 10.592 19.6521 11.2867C18.9548 11.9841 17.993 12.4145 16.9275 12.4145C15.862 12.4145 14.9002 11.9841 14.2029 11.2867C13.5055 10.5894 13.0751 9.62759 13.0751 8.5647C13.0751 7.50181 13.5055 6.53742 14.2029 5.84006C14.9002 5.14529 15.8646 4.71235 16.9275 4.71235ZM18.9133 6.5789C18.4052 6.07079 17.7026 5.7571 16.9275 5.7571C16.1524 5.7571 15.4498 6.07079 14.9417 6.5789C14.4336 7.08702 14.1199 7.78956 14.1199 8.5647C14.1199 9.33984 14.4336 10.0424 14.9417 10.5505C15.4498 11.0586 16.1524 11.3723 16.9275 11.3723C17.7026 11.3723 18.4052 11.0586 18.9133 10.5505C19.4214 10.0424 19.7351 9.33984 19.7351 8.5647C19.7351 7.78956 19.4214 7.08702 18.9133 6.5789ZM12.7692 15.3465C13.464 14.2836 14.3402 13.5836 15.2761 13.2103C15.9916 12.9252 16.7382 12.8318 17.4615 12.9122C18.1848 12.9926 18.89 13.2492 19.5199 13.6614C20.4013 14.2369 21.1402 15.1184 21.5964 16.2616C22.3586 18.1748 22.3508 19.9299 22.3431 21.6746C22.3379 23.1419 22.3301 24.6014 22.8227 26.0895C23.0067 26.6495 23.2452 27.1654 23.5382 27.6346C23.8311 28.1038 24.1759 28.529 24.5751 28.9101C24.7618 29.0889 24.7877 29.3741 24.6451 29.5815C24.36 30.03 23.9737 30.4214 23.5097 30.7585C21.9698 31.8836 19.5355 32.4098 17.0908 32.3995C14.6565 32.3865 12.1833 31.8395 10.5579 30.8129C10.0057 30.4655 9.54426 30.0585 9.20724 29.5919C9.03874 29.3611 9.09058 29.0345 9.32131 28.866L9.34205 28.8504V28.8478C9.87609 28.4979 10.3064 28.0286 10.6409 27.4557C10.9882 26.8646 11.2423 26.1569 11.416 25.3481C11.6675 24.1711 11.6597 22.8438 11.6545 21.5216C11.6415 19.3051 11.6312 17.0912 12.7692 15.3465ZM15.6598 14.1773C14.9158 14.4728 14.2106 15.0432 13.6403 15.9142C12.6707 17.3997 12.6811 19.4581 12.6915 21.5216C12.6992 22.906 12.707 24.2929 12.4322 25.5684C12.2378 26.481 11.9448 27.2898 11.5352 27.9846C11.219 28.5212 10.8379 28.9852 10.3842 29.3689C10.5916 29.5711 10.8353 29.7578 11.1101 29.9315C12.5722 30.8544 14.838 31.3469 17.0934 31.3599C19.3384 31.3703 21.5446 30.9062 22.8978 29.9185C23.1415 29.7422 23.3541 29.5478 23.533 29.3378C23.2012 28.9826 22.9082 28.5964 22.6516 28.1842C22.3146 27.6424 22.0398 27.0513 21.8298 26.4136C21.288 24.7751 21.2957 23.2275 21.3009 21.6694C21.3087 20.0258 21.3165 18.3718 20.6269 16.6453C20.2562 15.712 19.6573 14.9965 18.9496 14.5351C18.4544 14.211 17.9048 14.0114 17.3423 13.9492C16.7875 13.8844 16.2094 13.9569 15.6598 14.1773ZM12.1756 5.02863C12.3311 5.26973 12.2637 5.59119 12.0226 5.74673C11.7815 5.90228 11.4601 5.83487 11.3045 5.59378C11.1827 5.40712 11.0893 5.21269 11.0271 5.01048C10.9623 4.80568 10.9286 4.59829 10.9286 4.3883C10.9286 3.38762 11.6493 2.50879 12.8133 1.89957C13.8762 1.34479 15.3331 1 16.9275 1C18.5218 1 19.9788 1.34479 21.0417 1.90216C22.2057 2.51138 22.9264 3.39022 22.9264 4.39089C22.9264 4.492 22.9186 4.5931 22.903 4.6968L22.9004 4.71495C22.8849 4.81087 22.8641 4.90419 22.8356 4.99493C22.7527 5.26973 22.4623 5.42786 22.1849 5.34231C21.9101 5.25936 21.752 4.969 21.8375 4.69161C21.8531 4.64495 21.8635 4.59829 21.8712 4.55422L21.8738 4.53866C21.8816 4.48941 21.8842 4.44015 21.8842 4.3883C21.8842 3.80501 21.3787 3.25023 20.5595 2.82248C19.6392 2.34028 18.3559 2.04475 16.9249 2.04475C15.4939 2.04475 14.2106 2.34288 13.2903 2.82248C12.4737 3.25023 11.9656 3.8076 11.9656 4.3883C11.9656 4.49459 11.9811 4.60088 12.0148 4.70198C12.0537 4.81346 12.1056 4.92234 12.1756 5.02863ZM23.6082 25.3584C23.5071 25.0888 23.6419 24.7881 23.9089 24.687C24.1785 24.5859 24.4792 24.7207 24.5803 24.9877C24.7799 25.5088 25.0781 25.9236 25.4695 26.2399C25.874 26.5639 26.3821 26.792 26.9887 26.9269C27.2687 26.9891 27.445 27.2665 27.3827 27.5464C27.3205 27.8264 27.0431 28.0027 26.7632 27.9405C25.9958 27.7694 25.3425 27.4739 24.8162 27.0487C24.2796 26.6158 23.8752 26.0558 23.6082 25.3584ZM9.55722 24.9877C9.65833 24.7181 9.96164 24.5833 10.2287 24.687C10.4983 24.7907 10.6331 25.0914 10.5294 25.3584C10.2624 26.0558 9.85794 26.6184 9.31872 27.0513C8.78986 27.4764 8.13916 27.772 7.37181 27.9431C7.09183 28.0053 6.81444 27.829 6.75222 27.549C6.69 27.2691 6.86628 26.9917 7.14627 26.9294C7.75289 26.7946 8.2636 26.5665 8.66543 26.2425C9.05948 25.9236 9.3576 25.5088 9.55722 24.9877ZM21.1972 13.1222C20.9872 13.3192 20.658 13.3088 20.461 13.0989C20.2639 12.8889 20.2743 12.5596 20.4843 12.3626C21.4072 11.4941 22.4001 11.0042 23.3567 10.8538C24.404 10.6905 25.4021 10.9316 26.2265 11.5253C27.8157 12.6685 28.2071 14.7554 28.5416 16.5364C28.5649 16.6634 28.5908 16.7957 28.6401 17.0497L28.7464 17.6045C29.4074 21.0109 30.1255 24.7155 32.5598 25.8977C32.8191 26.0221 32.9279 26.3332 32.8035 26.5924C32.7672 26.665 32.718 26.7272 32.6557 26.7765C32.3861 27.0176 32.0932 27.2042 31.7847 27.3442C30.9655 27.7124 30.0426 27.7305 29.1378 27.4453C28.2668 27.1705 27.4087 26.608 26.6802 25.8017C26.1824 25.2521 25.7443 24.5911 25.4021 23.8289C25.2855 23.5671 25.4021 23.2586 25.664 23.1419C25.9258 23.0253 26.2343 23.1419 26.351 23.4037C26.6465 24.0648 27.025 24.6352 27.4501 25.1044C28.0516 25.768 28.749 26.2269 29.4515 26.4498C30.1178 26.6598 30.784 26.6521 31.3621 26.3928L31.3699 26.3902C29.0652 24.7051 28.3705 21.1224 27.7249 17.8015L27.6187 17.2519L27.5201 16.7308C27.222 15.1365 26.872 13.27 25.6225 12.3704C25.021 11.9374 24.29 11.7638 23.5174 11.883C22.7604 12.0023 21.962 12.4041 21.1972 13.1222Z" stroke="white" stroke-width="0.5" mask="url(#path-1-outside-1_373_153)"/>
<path d="M18.3663 21.165C18.0002 20.9627 17.611 20.8086 17.2257 20.6487C17.0022 20.5562 16.7883 20.4483 16.5995 20.2981C16.2277 20.0013 16.299 19.5197 16.7344 19.3289C16.8577 19.275 16.9868 19.2577 17.1178 19.25C17.6226 19.223 18.1023 19.3155 18.5589 19.5351C18.7863 19.6449 18.8614 19.6102 18.9385 19.3733C19.0194 19.1228 19.0868 18.8685 19.162 18.6161C19.2121 18.4465 19.1504 18.3348 18.9905 18.2635C18.6976 18.1344 18.3971 18.0419 18.0811 17.9919C17.6688 17.9283 17.6688 17.9264 17.6669 17.5121C17.665 16.9283 17.665 16.9283 17.0793 16.9283C16.9945 16.9283 16.9097 16.9264 16.8249 16.9283C16.5514 16.9361 16.5051 16.9842 16.4974 17.2597C16.4936 17.383 16.4974 17.5063 16.4955 17.6316C16.4936 17.9976 16.4916 17.9919 16.141 18.119C15.2932 18.4273 14.7692 19.0053 14.7133 19.9301C14.6632 20.7489 15.091 21.3018 15.7634 21.7045C16.1776 21.953 16.6361 22.0995 17.0754 22.2941C17.2469 22.3692 17.4106 22.4559 17.5532 22.5754C17.9751 22.9241 17.8981 23.504 17.3971 23.7236C17.1293 23.8412 16.8461 23.8701 16.5552 23.8335C16.1063 23.7776 15.6767 23.6601 15.2721 23.45C15.0351 23.3267 14.9657 23.3595 14.8848 23.6157C14.8154 23.8373 14.7538 24.0608 14.6921 24.2843C14.6093 24.5848 14.6401 24.6561 14.9272 24.7968C15.2932 24.974 15.6844 25.0646 16.0832 25.1282C16.3953 25.1783 16.4049 25.1917 16.4088 25.5154C16.4107 25.6618 16.4107 25.8102 16.4126 25.9566C16.4146 26.1416 16.5032 26.2495 16.6939 26.2533C16.9097 26.2572 17.1274 26.2572 17.3432 26.2514C17.5205 26.2475 17.611 26.1512 17.611 25.972C17.611 25.7717 17.6206 25.5694 17.6129 25.369C17.6033 25.1648 17.6919 25.0607 17.8884 25.0068C18.3412 24.8835 18.7265 24.6407 19.0232 24.2785C19.8478 23.2767 19.5338 21.8105 18.3663 21.165Z" fill="white"/>
</svg>
