<svg width="21" height="20" viewBox="0 0 21 20" fill="none" xmlns="http://www.w3.org/2000/svg">
<path d="M15.3372 5.89772H19.6446C18.9974 4.42483 18.014 3.12412 16.7734 2.09992C15.5327 1.07571 14.0693 0.356506 12.5005 0C13.7975 1.14112 14.8149 3.25106 15.3372 5.89772Z" fill="white"/>
<path d="M13.9377 5.89769C13.2164 2.54749 11.678 0.427979 10.2552 0.427979C8.83243 0.427979 7.29407 2.54749 6.57275 5.89769H13.9377Z" fill="white"/>
<path d="M6.15283 9.99999C6.15266 10.9147 6.21365 11.8283 6.33538 12.7348H14.1748C14.2966 11.8283 14.3576 10.9147 14.3574 9.99999C14.3576 9.08532 14.2966 8.17167 14.1748 7.26514H6.33538C6.21365 8.17167 6.15266 9.08532 6.15283 9.99999Z" fill="white"/>
<path d="M6.57275 14.1021C7.29407 17.4522 8.83243 19.5718 10.2552 19.5718C11.678 19.5718 13.2164 17.4522 13.9377 14.1021H6.57275Z" fill="white"/>
<path d="M20.1367 7.26514H15.5559C15.6687 8.17239 15.7251 9.08576 15.7247 9.99999C15.7248 10.9142 15.6682 11.8276 15.5552 12.7348H20.1361C20.6347 10.9457 20.6354 9.05428 20.1367 7.26514Z" fill="white"/>
<path d="M12.5005 19.9998C14.0695 19.6435 15.5332 18.9243 16.7742 17.9001C18.0151 16.8759 18.9986 15.5751 19.646 14.1021H15.3386C14.8149 16.7487 13.7975 18.8586 12.5005 19.9998Z" fill="white"/>
<path d="M5.17214 14.1021H0.864746C1.51208 15.5751 2.49566 16.8759 3.73657 17.9001C4.97749 18.9243 6.44118 19.6435 8.01024 19.9998C6.71187 18.8586 5.6945 16.7487 5.17214 14.1021Z" fill="white"/>
<path d="M8.00877 0C6.43972 0.356313 4.97602 1.07543 3.73511 2.09964C2.49419 3.12386 1.51062 4.42467 0.863281 5.89772H5.17068C5.6944 3.25106 6.71177 1.14112 8.00877 0Z" fill="white"/>
<path d="M4.78528 9.99999C4.78519 9.08574 4.84182 8.17237 4.95484 7.26514H0.373958C-0.124653 9.05428 -0.124653 10.9457 0.373958 12.7348H4.95484C4.84182 11.8276 4.78519 10.9142 4.78528 9.99999Z" fill="white"/>
</svg>
