<svg width="52" height="52" viewBox="0 0 52 52" fill="none" xmlns="http://www.w3.org/2000/svg">
<path d="M32.0904 49.4847C31.9202 49.3846 31.74 49.2846 31.5699 49.1845L30.5189 49.6349C28.4571 50.5157 26.0649 49.7149 24.9439 47.7732L23.1422 44.6503C22.0212 42.7086 22.5317 40.2363 24.3233 38.8851L25.2341 38.2045C25.2341 38.1044 25.2341 38.0043 25.2341 37.9042C25.2341 37.8041 25.2341 37.704 25.2341 37.604L24.3233 36.9233C22.5317 35.5721 22.0312 33.0999 23.1422 31.1581L24.9439 28.0353C25.4844 27.1044 26.3351 26.4038 27.346 26.0635C24.8538 24.9224 22.1413 24.3319 19.3988 24.3419C8.83926 24.3319 0.271484 32.8997 0.271484 43.4593V49.0043C0.271484 50.5057 1.48258 51.7168 2.98395 51.7168H32.5007C32.3606 51.3664 32.2705 50.9961 32.2205 50.6158L32.0904 49.4847Z" fill="white"/>
<path d="M19.3989 21.4693C25.1977 21.4693 29.8985 16.7685 29.8985 10.9697C29.8985 5.17101 25.1977 0.470215 19.3989 0.470215C13.6002 0.470215 8.89941 5.17101 8.89941 10.9697C8.89941 16.7685 13.6002 21.4693 19.3989 21.4693Z" fill="white"/>
<path d="M50.8679 41.127L48.7159 39.5155C48.8861 38.4546 48.8861 37.3636 48.7159 36.3026L50.8679 34.6912C51.5285 34.2007 51.7086 33.2899 51.2983 32.5692L49.4966 29.4464C49.0863 28.7358 48.2055 28.4355 47.4448 28.7658L44.9725 29.8167C44.1318 29.1361 43.1909 28.5956 42.19 28.2053L41.8697 25.5329C41.7696 24.7121 41.079 24.1016 40.2483 24.1016H36.635C35.8142 24.1016 35.1136 24.7221 35.0135 25.5329L34.6932 28.2053C33.6823 28.5956 32.7515 29.1361 31.9107 29.8167L29.4384 28.7658C28.6778 28.4455 27.797 28.7358 27.3866 29.4464L25.5849 32.5692C25.1746 33.2799 25.3547 34.1907 26.0153 34.6912L28.1673 36.3026C27.9971 37.3636 27.9971 38.4546 28.1673 39.5155L26.0153 41.127C25.3547 41.6275 25.1746 42.5383 25.5849 43.2489L27.3866 46.3718C27.797 47.0824 28.6778 47.3827 29.4384 47.0624L31.9107 46.0014C32.7515 46.682 33.6923 47.2225 34.6932 47.6129L35.0135 50.2853C35.1136 51.1061 35.8042 51.7166 36.635 51.7166H40.2483C41.069 51.7166 41.7696 51.0961 41.8697 50.2853L42.19 47.6129C43.1909 47.2225 44.1318 46.682 44.9725 46.0014L47.4448 47.0524C48.2055 47.3727 49.0863 47.0824 49.4966 46.3618L51.2983 43.2389C51.7086 42.5383 51.5285 41.6275 50.8679 41.127ZM38.4366 41.8076C36.2847 41.8076 34.5331 40.056 34.5331 37.9041C34.5331 35.7521 36.2847 34.0005 38.4366 34.0005C40.5886 34.0005 42.3401 35.7521 42.3401 37.9041C42.3401 40.056 40.5886 41.8076 38.4366 41.8076Z" fill="#2196F3"/>
</svg>
