<svg width="53" height="53" viewBox="0 0 53 53" fill="none" xmlns="http://www.w3.org/2000/svg">
<path d="M49.5434 10.2768H45.6855C46.1944 9.47146 46.5302 8.56746 46.6259 7.61139C46.9318 4.55593 45.3227 1.81691 42.5831 0.602569C40.065 -0.513637 37.2352 -0.0573416 35.1975 1.79082L30.3261 6.20576C29.3774 5.16812 28.0136 4.51597 26.5 4.51597C24.9837 4.51597 23.6177 5.17019 22.6687 6.21104L17.7911 1.79031C15.7501 -0.0578591 12.9214 -0.512395 10.4044 0.60319C7.66563 1.81763 6.05617 4.55758 6.36299 7.61294C6.45895 8.56829 6.79455 9.47187 7.30332 10.2768H3.45648C1.54745 10.2768 0 11.8244 0 13.7333V18.9181C0 19.8725 0.773778 20.6464 1.72829 20.6464H51.2717C52.2261 20.6464 53 19.8726 53 18.9181V13.7333C52.9999 11.8244 51.4524 10.2768 49.5434 10.2768ZM21.3152 9.70075V10.2768H13.1848C11.0366 10.2768 9.34599 8.2742 9.88251 6.03765C10.1188 5.0527 10.8298 4.21308 11.7493 3.78805C13.012 3.20443 14.4107 3.39179 15.4712 4.35169L21.3166 9.64982C21.3163 9.6669 21.3152 9.68367 21.3152 9.70075ZM43.1964 7.15251C43.0676 8.94881 41.445 10.277 39.6441 10.277H31.6847V9.70095C31.6847 9.68056 31.6835 9.66038 31.6833 9.63998C33.0075 8.43962 35.8801 5.836 37.4381 4.42374C38.3236 3.62118 39.5626 3.24656 40.7079 3.58816C42.3514 4.07841 43.3166 5.47608 43.1964 7.15251Z" fill="#2196F3"/>
<path d="M3.45654 24.1028V49.4506C3.45654 51.3596 5.004 52.9071 6.91303 52.9071H23.0434V24.1028H3.45654Z" fill="white"/>
<path d="M29.9565 24.1028V52.9071H46.0869C47.996 52.9071 49.5434 51.3596 49.5434 49.4506V24.1028H29.9565Z" fill="white"/>
</svg>
