<svg width="54" height="54" viewBox="0 0 54 54" fill="none" xmlns="http://www.w3.org/2000/svg">
<rect x="0.19873" y="0.37085" width="53" height="53" rx="6.75816" fill="white"/>
<mask id="path-2-outside-1_496_525" maskUnits="userSpaceOnUse" x="8.19873" y="15.3708" width="37" height="23" fill="black">
<rect fill="white" x="8.19873" y="15.3708" width="37" height="23"/>
<path d="M22.4948 22.957C22.4948 23.8532 22.3331 24.7033 22.0097 25.5071C21.6955 26.3017 21.2566 26.9808 20.693 27.5445C19.9816 28.2467 19.1454 28.778 18.1845 29.1383C17.2235 29.4987 16.0085 29.6788 14.5394 29.6788H12.211V37.3708H9.46682V16.734H14.6503C15.8699 16.734 16.9094 16.8357 17.7687 17.039C18.628 17.2422 19.3856 17.5702 20.0416 18.023C20.8085 18.5496 21.4091 19.2195 21.8434 20.0326C22.2776 20.8365 22.4948 21.8112 22.4948 22.957ZM19.6397 23.0263C19.6397 22.3148 19.515 21.6957 19.2655 21.1691C19.0253 20.6424 18.6557 20.2128 18.1567 19.8802C17.7225 19.5937 17.2143 19.3905 16.6322 19.2703C16.0593 19.1502 15.3433 19.0902 14.484 19.0902H12.211V27.3366H14.082C15.1908 27.3366 16.087 27.2488 16.7708 27.0732C17.4545 26.8884 18.0228 26.5651 18.4755 26.1031C18.882 25.6873 19.1777 25.2345 19.3625 24.7448C19.5473 24.2551 19.6397 23.6823 19.6397 23.0263ZM44.232 37.3708H41.4878V19.5891L36.1103 31.6885H34.4472L29.1113 19.5891V37.3708H26.5473V16.734H30.2893L35.4451 28.2236L40.4206 16.734H44.232V37.3708Z"/>
</mask>
<path d="M22.4948 22.957C22.4948 23.8532 22.3331 24.7033 22.0097 25.5071C21.6955 26.3017 21.2566 26.9808 20.693 27.5445C19.9816 28.2467 19.1454 28.778 18.1845 29.1383C17.2235 29.4987 16.0085 29.6788 14.5394 29.6788H12.211V37.3708H9.46682V16.734H14.6503C15.8699 16.734 16.9094 16.8357 17.7687 17.039C18.628 17.2422 19.3856 17.5702 20.0416 18.023C20.8085 18.5496 21.4091 19.2195 21.8434 20.0326C22.2776 20.8365 22.4948 21.8112 22.4948 22.957ZM19.6397 23.0263C19.6397 22.3148 19.515 21.6957 19.2655 21.1691C19.0253 20.6424 18.6557 20.2128 18.1567 19.8802C17.7225 19.5937 17.2143 19.3905 16.6322 19.2703C16.0593 19.1502 15.3433 19.0902 14.484 19.0902H12.211V27.3366H14.082C15.1908 27.3366 16.087 27.2488 16.7708 27.0732C17.4545 26.8884 18.0228 26.5651 18.4755 26.1031C18.882 25.6873 19.1777 25.2345 19.3625 24.7448C19.5473 24.2551 19.6397 23.6823 19.6397 23.0263ZM44.232 37.3708H41.4878V19.5891L36.1103 31.6885H34.4472L29.1113 19.5891V37.3708H26.5473V16.734H30.2893L35.4451 28.2236L40.4206 16.734H44.232V37.3708Z" fill="#2196F3"/>
<path d="M22.0097 25.5071L21.3139 25.2272L21.3122 25.2314L22.0097 25.5071ZM20.693 27.5445L21.2199 28.0783L21.2234 28.0748L20.693 27.5445ZM12.211 29.6788V28.9288H11.461V29.6788H12.211ZM12.211 37.3708V38.1208H12.961V37.3708H12.211ZM9.46682 37.3708H8.71682V38.1208H9.46682V37.3708ZM9.46682 16.734V15.984H8.71682V16.734H9.46682ZM20.0416 18.023L19.6156 18.6403L19.617 18.6412L20.0416 18.023ZM21.8434 20.0326L21.1818 20.3859L21.1835 20.3891L21.8434 20.0326ZM19.2655 21.1691L18.5831 21.4804L18.5877 21.4902L19.2655 21.1691ZM18.1567 19.8802L18.5728 19.2561L18.5697 19.2541L18.1567 19.8802ZM16.6322 19.2703L16.4783 20.0044L16.4806 20.0049L16.6322 19.2703ZM12.211 19.0902V18.3402H11.461V19.0902H12.211ZM12.211 27.3366H11.461V28.0866H12.211V27.3366ZM16.7708 27.0732L16.9573 27.7997L16.9665 27.7973L16.7708 27.0732ZM18.4755 26.1031L19.0112 26.628L19.0118 26.6274L18.4755 26.1031ZM21.7448 22.957C21.7448 23.7607 21.6002 24.5154 21.3139 25.2272L22.7055 25.787C23.0659 24.8911 23.2448 23.9458 23.2448 22.957H21.7448ZM21.3122 25.2314C21.033 25.9375 20.6487 26.5282 20.1627 27.0141L21.2234 28.0748C21.8646 27.4335 22.358 26.6659 22.7071 25.7829L21.3122 25.2314ZM20.1662 27.0107C19.5318 27.6368 18.786 28.1117 17.9211 28.4361L18.4478 29.8405C19.5047 29.4442 20.4314 28.8565 21.2199 28.0782L20.1662 27.0107ZM17.9211 28.4361C17.0723 28.7544 15.9542 28.9288 14.5394 28.9288V30.4288C16.0629 30.4288 17.3748 30.2429 18.4478 29.8405L17.9211 28.4361ZM14.5394 28.9288H12.211V30.4288H14.5394V28.9288ZM11.461 29.6788V37.3708H12.961V29.6788H11.461ZM12.211 36.6208H9.46682V38.1208H12.211V36.6208ZM10.2168 37.3708V16.734H8.71682V37.3708H10.2168ZM9.46682 17.484H14.6503V15.984H9.46682V17.484ZM14.6503 17.484C15.8321 17.484 16.8101 17.5829 17.596 17.7688L17.9413 16.3091C17.0086 16.0885 15.9077 15.984 14.6503 15.984V17.484ZM17.596 17.7688C18.3744 17.9529 19.0442 18.2459 19.6156 18.6402L20.4676 17.4057C19.727 16.8946 18.8816 16.5315 17.9413 16.3091L17.596 17.7688ZM19.617 18.6412C20.2858 19.1005 20.8047 19.6799 21.1818 20.3859L22.5049 19.6793C22.0135 18.7591 21.3312 17.9988 20.4662 17.4047L19.617 18.6412ZM21.1835 20.3891C21.5454 21.059 21.7448 21.9047 21.7448 22.957H23.2448C23.2448 21.7178 23.0098 20.6139 22.5032 19.6761L21.1835 20.3891ZM20.3897 23.0263C20.3897 22.2278 20.2496 21.4947 19.9433 20.848L18.5877 21.4902C18.7803 21.8968 18.8897 22.4018 18.8897 23.0263H20.3897ZM19.9479 20.8578C19.6475 20.1994 19.1835 19.6633 18.5728 19.2561L17.7407 20.5042C18.1279 20.7623 18.403 21.0854 18.5831 21.4803L19.9479 20.8578ZM18.5697 19.2541C18.0455 18.9083 17.4459 18.6724 16.7838 18.5358L16.4806 20.0049C16.9827 20.1085 17.3995 20.2791 17.7438 20.5062L18.5697 19.2541ZM16.7861 18.5363C16.1451 18.4019 15.3733 18.3402 14.484 18.3402V19.8402C15.3132 19.8402 15.9735 19.8985 16.4783 20.0044L16.7861 18.5363ZM14.484 18.3402H12.211V19.8402H14.484V18.3402ZM11.461 19.0902V27.3366H12.961V19.0902H11.461ZM12.211 28.0866H14.082V26.5866H12.211V28.0866ZM14.082 28.0866C15.2223 28.0866 16.1883 27.9971 16.9573 27.7997L16.5843 26.3468C15.9858 26.5005 15.1593 26.5866 14.082 26.5866V28.0866ZM16.9665 27.7973C17.7666 27.581 18.4561 27.1944 19.0112 26.628L17.9398 25.5781C17.5894 25.9357 17.1424 26.1959 16.5751 26.3492L16.9665 27.7973ZM19.0118 26.6274C19.4827 26.1457 19.8389 25.6066 20.0642 25.0096L18.6608 24.48C18.5165 24.8625 18.2814 25.2288 17.9392 25.5787L19.0118 26.6274ZM20.0642 25.0096C20.2879 24.4169 20.3897 23.7507 20.3897 23.0263H18.8897C18.8897 23.6138 18.8067 24.0934 18.6608 24.48L20.0642 25.0096ZM44.232 37.3708V38.1208H44.982V37.3708H44.232ZM41.4878 37.3708H40.7378V38.1208H41.4878V37.3708ZM41.4878 19.5891H42.2378L40.8025 19.2845L41.4878 19.5891ZM36.1103 31.6885V32.4385H36.5977L36.7957 31.9931L36.1103 31.6885ZM34.4472 31.6885L33.761 31.9911L33.9583 32.4385H34.4472V31.6885ZM29.1113 19.5891L29.7975 19.2865L28.3613 19.5891H29.1113ZM29.1113 37.3708V38.1208H29.8613V37.3708H29.1113ZM26.5473 37.3708H25.7973V38.1208H26.5473V37.3708ZM26.5473 16.734V15.984H25.7973V16.734H26.5473ZM30.2893 16.734L30.9736 16.427L30.7748 15.984H30.2893V16.734ZM35.4451 28.2236L34.7608 28.5306L35.4573 30.0827L36.1333 28.5216L35.4451 28.2236ZM40.4206 16.734V15.984H39.9281L39.7324 16.436L40.4206 16.734ZM44.232 16.734H44.982V15.984H44.232V16.734ZM44.232 36.6208H41.4878V38.1208H44.232V36.6208ZM42.2378 37.3708V19.5891H40.7378V37.3708H42.2378ZM40.8025 19.2845L35.425 31.3838L36.7957 31.9931L42.1732 19.8937L40.8025 19.2845ZM36.1103 30.9385H34.4472V32.4385H36.1103V30.9385ZM35.1334 31.3858L29.7975 19.2865L28.4251 19.8917L33.761 31.9911L35.1334 31.3858ZM28.3613 19.5891V37.3708H29.8613V19.5891H28.3613ZM29.1113 36.6208H26.5473V38.1208H29.1113V36.6208ZM27.2973 37.3708V16.734H25.7973V37.3708H27.2973ZM26.5473 17.484H30.2893V15.984H26.5473V17.484ZM29.6051 17.0411L34.7608 28.5306L36.1293 27.9165L30.9736 16.427L29.6051 17.0411ZM36.1333 28.5216L41.1089 17.0321L39.7324 16.436L34.7568 27.9255L36.1333 28.5216ZM40.4206 17.484H44.232V15.984H40.4206V17.484ZM43.482 16.734V37.3708H44.982V16.734H43.482Z" fill="black" mask="url(#path-2-outside-1_496_525)"/>
</svg>
