<svg width="62" height="62" viewBox="0 0 62 62" fill="none" xmlns="http://www.w3.org/2000/svg">
<g filter="url(#filter0_d_496_455)">
<path d="M41.1167 36C41.0477 39.1882 36.3219 41.763 30.5 41.763C24.6781 41.763 19.9516 39.1882 19.8826 36C10.9767 36.8145 4 49.4134 4 51.415C4 53.4167 11.34 52.415 21 52.415H39.5C49.1593 52.415 58 54.4167 57 52.415C56 50.4134 50.0261 36.8145 41.1167 36Z" fill="#2196F3"/>
<path d="M15.7985 25.4729C16.1813 25.5757 16.5835 25.6338 17.0007 25.6338H17.8253C17.8288 25.6338 17.8317 25.6331 17.8353 25.6331C19.5655 33.4372 24.5808 39.081 30.4996 39.081C35.8137 39.081 40.3887 34.5217 42.5225 27.9436C43.5259 27.2326 44.3569 26.4174 44.9688 25.5218C45.0169 25.5117 45.0679 25.506 45.1167 25.4945C47.0013 25.0291 48.3932 23.4232 48.3932 21.5048V18.2642C48.3932 16.348 47.0013 14.7399 45.1167 14.276V13.7732C45.1174 6.17809 38.5379 0 30.4558 0C22.3737 0 15.7985 6.17881 15.7985 13.7739V14.2961C13.9577 14.7881 12.6074 16.3767 12.6074 18.2649V21.5048C12.6074 23.393 13.9577 24.9817 15.7985 25.4729ZM30.4996 37.0341C24.5772 37.0341 19.6847 30.6017 18.9162 22.2589C19.4369 22.3896 20.0769 22.6425 20.7735 23.1287C20.7735 23.1273 19.4513 15.2772 22.2437 14.1754C22.2437 14.1754 26.0955 16.0464 30.4989 16.1663C34.903 16.0464 38.7562 14.1754 38.7562 14.1754C41.5472 15.2772 40.2235 23.1273 40.2235 23.1287C40.9116 22.6489 41.54 22.3983 42.0564 22.2661V22.455C41.9695 23.3255 41.8359 24.1737 41.6607 24.9975C39.8378 26.6465 36.7057 27.8352 33.1096 28.0557C32.7771 27.7727 32.3512 27.5967 31.88 27.5967H29.3375C28.2796 27.5967 27.4228 28.4543 27.4228 29.5115C27.4228 30.5687 28.2789 31.4262 29.3375 31.4262H31.88C32.3964 31.4262 32.8618 31.2201 33.2073 30.8876C35.8697 30.7389 38.3001 30.1413 40.3176 29.2113C38.2384 33.9156 34.6207 37.0341 30.4996 37.0341ZM30.4558 2.87502C36.3416 2.87502 41.2025 7.01409 41.9472 12.3547C39.6016 8.27743 35.3598 5.54534 30.5003 5.54534C25.5626 5.54534 21.2555 8.36506 18.9356 12.5537C19.5834 7.1168 24.5004 2.87502 30.4558 2.87502Z" fill="white"/>
</g>
<defs>
<filter id="filter0_d_496_455" x="0" y="0" width="61.0776" height="61.3047" filterUnits="userSpaceOnUse" color-interpolation-filters="sRGB">
<feFlood flood-opacity="0" result="BackgroundImageFix"/>
<feColorMatrix in="SourceAlpha" type="matrix" values="0 0 0 0 0 0 0 0 0 0 0 0 0 0 0 0 0 0 127 0" result="hardAlpha"/>
<feOffset dy="4"/>
<feGaussianBlur stdDeviation="2"/>
<feComposite in2="hardAlpha" operator="out"/>
<feColorMatrix type="matrix" values="0 0 0 0 0 0 0 0 0 0 0 0 0 0 0 0 0 0 0.25 0"/>
<feBlend mode="normal" in2="BackgroundImageFix" result="effect1_dropShadow_496_455"/>
<feBlend mode="normal" in="SourceGraphic" in2="effect1_dropShadow_496_455" result="shape"/>
</filter>
</defs>
</svg>
