<svg width="53" height="53" viewBox="0 0 53 53" fill="none" xmlns="http://www.w3.org/2000/svg">
<path d="M26.5 0C22.6018 6.67719e-05 18.8942 0.83927 15.5584 2.35325C15.1018 2.56058 14.909 3.1058 15.134 3.55398L16.7126 6.7164C16.9246 7.14114 17.4343 7.32244 17.8668 7.127C20.5036 5.94972 23.4221 5.30172 26.5 5.30172C38.2189 5.30172 47.6983 14.7812 47.6983 26.5001C47.6983 30.9085 46.3414 34.9823 44.0407 38.375L41.2562 35.5887C41.0659 35.398 40.7991 35.3046 40.5315 35.335C40.0852 35.3867 39.7488 35.7655 39.75 36.2149V45.9315C39.7482 46.4193 40.1421 46.8164 40.6299 46.8183H50.3448C51.1385 46.825 51.5368 45.862 50.9711 45.3053L47.8397 42.1739C51.0703 37.7822 53 32.3659 53 26.5C53 11.8748 41.1251 -3.33858e-05 26.5 0ZM2.64655 6.18161C1.86102 6.18191 1.46657 7.13057 2.02028 7.68778L5.15335 10.8209C1.92227 15.2132 0 20.6331 0 26.5001C0 41.1252 11.8749 53.0001 26.5 53.0001C30.3982 53.0001 34.1058 52.1539 37.4416 50.6399C37.8976 50.4319 38.0895 49.8868 37.8643 49.4391L36.2805 46.2768C36.0688 45.8558 35.5639 45.6752 35.1332 45.8662C32.4964 47.0435 29.5779 47.6984 26.5 47.6984C14.7811 47.6984 5.30172 38.219 5.30172 26.5001C5.30172 22.0931 6.65064 18.0145 8.94893 14.6216L11.7438 17.4096C12.3011 17.9634 13.2497 17.5688 13.25 16.7833V7.06842C13.2518 6.57788 12.8538 6.17974 12.3632 6.18161H2.64655Z" fill="white"/>
<path d="M27.1299 13C19.3347 13 13 19.3417 13 27.1368C13 34.932 19.3347 41.2668 27.1299 41.2668C34.925 41.2668 41.2667 34.932 41.2667 27.1368C41.2667 19.3417 34.925 13 27.1299 13ZM27.1263 16.5282C27.5681 16.5282 28.0097 16.8223 28.0097 17.4114V19.2834C30.0203 19.694 31.5447 21.481 31.5447 23.6086C31.5714 24.8128 29.7514 24.8128 29.7781 23.6086C29.7781 22.1346 28.6038 20.9621 27.1298 20.9621C25.6558 20.9621 24.4832 22.1346 24.4832 23.6086C24.4832 25.0827 25.6558 26.257 27.1298 26.257C29.5586 26.257 31.5447 28.2483 31.5447 30.6771C31.5447 32.8047 30.0203 34.5934 28.0097 35.004V36.8587C28.0097 38.0367 26.243 38.0367 26.243 36.8587V35.0023C24.2358 34.589 22.7166 32.8023 22.7166 30.6771C22.7421 29.5251 24.4565 29.5251 24.4832 30.6771C24.4832 32.1511 25.6558 33.3254 27.1298 33.3254C28.6038 33.3254 29.7781 32.1511 29.7781 30.6771C29.7781 29.203 28.6038 28.0235 27.1298 28.0235C24.701 28.0235 22.7166 26.0374 22.7166 23.6086C22.7166 21.4834 24.2358 19.6984 26.243 19.2851V17.4114C26.243 16.8224 26.6846 16.5282 27.1263 16.5282Z" fill="#2196F3"/>
</svg>
