<svg width="53" height="53" viewBox="0 0 53 53" fill="none" xmlns="http://www.w3.org/2000/svg">
<path d="M12.3857 9.6846L33.5143 3.91739L32.3954 1.65574C31.6633 0.185669 29.8778 -0.421406 28.4077 0.310655L9.49316 9.6846H12.3857Z" fill="#2196F3"/>
<path d="M40.0729 5.08398C39.8111 5.08398 39.5492 5.11969 39.2873 5.19112L34.3236 6.54811L19.1646 10.6845H36.3709H43.8701L42.9416 7.28017C42.5845 5.95293 41.3823 5.08398 40.0729 5.08398Z" fill="#2196F3"/>
<path d="M46.9709 13.7676H46.2924H45.3699H44.4474H37.4065H11.5344H8.14194H5.28512H4.75542H2.98181C2.04144 13.7676 1.20225 14.2021 0.654688 14.8865C0.404716 15.2019 0.214262 15.565 0.107131 15.9638C0.041662 16.2137 0 16.4756 0 16.7434V17.1005V20.493V49.9004C0 51.5432 1.33318 52.8763 2.97586 52.8763H46.965C48.6077 52.8763 49.9408 51.5432 49.9408 49.9004V41.5978H32.2821C29.4907 41.5978 27.2231 39.3302 27.2231 36.5388V33.8129V32.8904V31.9679V29.9205C27.2231 28.5516 27.7706 27.3078 28.6575 26.3972C29.4431 25.5877 30.4966 25.0401 31.675 24.9032C31.8714 24.8795 32.0738 24.8675 32.2761 24.8675H47.4649H48.3874H49.3099H49.9408V16.7434C49.9468 15.1008 48.6136 13.7676 46.9709 13.7676Z" fill="white"/>
<path d="M52.0298 27.7125C51.7322 27.4387 51.3811 27.2304 50.9882 27.0935C50.6846 26.9924 50.3633 26.9329 50.0241 26.9329H49.9467H49.8872H48.9647H45.6376H32.282C30.6393 26.9329 29.3062 28.266 29.3062 29.9087V31.3906V32.3131V33.2357V36.5329C29.3062 38.1756 30.6393 39.5088 32.282 39.5088H49.9467H50.0241C50.3633 39.5088 50.6847 39.4493 50.9882 39.3481C51.3811 39.2171 51.7322 39.0029 52.0298 38.7291C52.625 38.1875 52.9999 37.4019 52.9999 36.533V29.9087C52.9999 29.0397 52.625 28.254 52.0298 27.7125ZM38.4956 33.813C38.4956 34.6343 37.829 35.3009 37.0077 35.3009H36.0197C35.1983 35.3009 34.5318 34.6343 34.5318 33.813V32.825C34.5318 32.3489 34.752 31.9262 35.1031 31.6584C35.359 31.462 35.6745 31.3371 36.0197 31.3371H36.2697H37.0077C37.829 31.3371 38.4956 32.0036 38.4956 32.825V33.813Z" fill="#2196F3"/>
</svg>
