<svg width="21" height="23" viewBox="0 0 21 23" fill="none" xmlns="http://www.w3.org/2000/svg">
<path d="M17.0625 14.525C15.7657 14.525 14.623 15.1629 13.9052 16.133L7.69956 12.9554C7.80259 12.6042 7.875 12.2403 7.875 11.8562C7.875 11.3354 7.76821 10.8402 7.58371 10.3847L14.0782 6.47657C14.8009 7.3248 15.8633 7.875 17.0625 7.875C19.2338 7.875 21 6.10877 21 3.9375C21 1.76623 19.2338 0 17.0625 0C14.8912 0 13.125 1.76623 13.125 3.9375C13.125 4.43787 13.228 4.91251 13.399 5.35316L6.88516 9.27273C6.16302 8.4497 5.11599 7.91875 3.9375 7.91875C1.76623 7.91875 0 9.68498 0 11.8562C0 14.0275 1.76623 15.7937 3.9375 15.7937C5.25569 15.7937 6.41773 15.1371 7.13278 14.1397L13.318 17.307C13.2041 17.6748 13.125 18.0578 13.125 18.4625C13.125 20.6338 14.8912 22.4 17.0625 22.4C19.2338 22.4 21 20.6338 21 18.4625C21 16.2912 19.2338 14.525 17.0625 14.525Z" fill="black"/>
</svg>
