<svg width="30" height="31" viewBox="0 0 30 31" fill="none" xmlns="http://www.w3.org/2000/svg">
<path d="M15 0.53125C6.7166 0.53125 0 7.24653 0 15.5306C0 23.8147 6.71594 30.5299 15 30.5299C23.2847 30.5299 30 23.8147 30 15.5306C30 7.24653 23.2847 0.53125 15 0.53125ZM15 5.01623C17.7409 5.01623 19.962 7.23796 19.962 9.97757C19.962 12.7178 17.7409 14.9389 15 14.9389C12.2604 14.9389 10.0393 12.7178 10.0393 9.97757C10.0393 7.23796 12.2604 5.01623 15 5.01623ZM14.9967 26.6083C12.263 26.6083 9.75929 25.6127 7.82812 23.9649C7.35768 23.5636 7.08623 22.9752 7.08623 22.3579C7.08623 19.5794 9.33497 17.3557 12.1141 17.3557H17.8872C20.667 17.3557 22.9072 19.5794 22.9072 22.3579C22.9072 22.9759 22.637 23.563 22.1659 23.9642C20.2354 25.6127 17.731 26.6083 14.9967 26.6083Z" fill="white"/>
</svg>
