<svg width="35" height="35" viewBox="0 0 35 35" fill="none" xmlns="http://www.w3.org/2000/svg">
<path d="M27.7624 11.6083C30.8262 11.6083 33.31 9.12449 33.31 6.0606C33.31 2.99671 30.8262 0.512939 27.7624 0.512939C24.6985 0.512939 22.2147 2.99671 22.2147 6.0606C22.2147 9.12449 24.6985 11.6083 27.7624 11.6083Z" fill="#FCD249"/>
<path d="M24.5949 7.88944C23.2242 5.51515 23.809 2.55001 25.8478 0.854492C25.5552 0.962436 25.2675 1.09506 24.9882 1.25626C22.3347 2.78825 21.4256 6.1812 22.9575 8.83475C24.4895 11.4882 27.8825 12.3974 30.536 10.8654C30.8152 10.7043 31.0739 10.5213 31.3137 10.3219C28.826 11.2398 25.9657 10.2637 24.5949 7.88944Z" fill="#F9B938"/>
<path d="M27.7624 9.71809C29.7823 9.71809 31.4198 8.08059 31.4198 6.06064C31.4198 4.04069 29.7823 2.4032 27.7624 2.4032C25.7424 2.4032 24.1049 4.04069 24.1049 6.06064C24.1049 8.08059 25.7424 9.71809 27.7624 9.71809Z" fill="#F9B938"/>
<path d="M26.075 7.03486C25.2123 5.54067 25.5247 3.69127 26.7242 2.5542C26.4538 2.63446 26.1884 2.74643 25.9335 2.89362C24.1843 3.90346 23.585 6.14021 24.5949 7.88939C25.6047 9.63857 27.8415 10.2379 29.5906 9.22799C29.8456 9.08081 30.0753 8.90689 30.28 8.71288C28.6955 9.18321 26.9377 8.52912 26.075 7.03486Z" fill="#E59C1C"/>
<path d="M22.443 11.6083C25.5068 11.6083 27.9906 9.12449 27.9906 6.0606C27.9906 2.99671 25.5068 0.512939 22.443 0.512939C19.3791 0.512939 16.8953 2.99671 16.8953 6.0606C16.8953 9.12449 19.3791 11.6083 22.443 11.6083Z" fill="#FCD249"/>
<path d="M19.2755 7.88944C17.9048 5.51515 18.4896 2.55001 20.5284 0.854492C20.2358 0.962436 19.9481 1.09506 19.6688 1.25626C17.0153 2.78825 16.1062 6.18121 17.6381 8.83475C19.1701 11.4883 22.5631 12.3974 25.2166 10.8655C25.4959 10.7043 25.7546 10.5213 25.9944 10.3219C23.5066 11.2398 20.6463 10.2637 19.2755 7.88944Z" fill="#F9B938"/>
<path d="M22.443 9.71809C24.4629 9.71809 26.1004 8.08059 26.1004 6.06064C26.1004 4.04069 24.4629 2.4032 22.443 2.4032C20.423 2.4032 18.7855 4.04069 18.7855 6.06064C18.7855 8.08059 20.423 9.71809 22.443 9.71809Z" fill="#F9B938"/>
<path d="M20.7556 7.03486C19.893 5.54067 20.2053 3.69127 21.4049 2.5542C21.1345 2.63446 20.8691 2.74643 20.6141 2.89362C18.865 3.90346 18.2656 6.14021 19.2755 7.88939C20.2854 9.63857 22.5221 10.2379 24.2713 9.22799C24.5262 9.08081 24.756 8.90689 24.9607 8.71288C23.3761 9.18321 21.6184 8.52912 20.7556 7.03486Z" fill="#E59C1C"/>
<path d="M22.9072 9.81063L13.97 0.805078C13.5834 0.41849 12.9509 0.41849 12.5643 0.805078L3.62709 9.81063H22.9072Z" fill="#91CE91"/>
<path d="M13.97 0.805078C13.5834 0.41849 12.9509 0.41849 12.5643 0.805078L3.62703 9.81063H6.29322L14.6002 1.44009L13.97 0.805078Z" fill="#5EAA5E"/>
<path d="M12.5643 3.47866L6.3006 9.81071H20.2336L13.97 3.47866C13.5834 3.09207 12.9509 3.09207 12.5643 3.47866Z" fill="#5EAA5E"/>
<path d="M13.97 3.47866C13.5834 3.09207 12.9509 3.09207 12.5643 3.47866L6.3006 9.81071H8.07801L14.1558 3.66652L13.97 3.47866Z" fill="#4D964D"/>
<path d="M34.4872 26.6417V31.3926C34.4872 33.1003 33.098 34.4897 31.3901 34.4897H3.60979C1.90211 34.4897 0.512714 33.1004 0.512714 31.3926V12.8393C0.512714 11.1316 1.90197 9.74231 3.60979 9.74231H31.3901C33.0978 9.74231 34.4872 11.1316 34.4872 12.8393V17.5721" fill="#DD9A5E"/>
<path d="M2.42693 31.3926V12.8393C2.42693 11.1316 3.81618 9.74231 5.52401 9.74231H3.60987C1.90218 9.74231 0.512787 11.1316 0.512787 12.8393V31.3926C0.512787 33.1003 1.90204 34.4897 3.60987 34.4897H5.52401C3.81618 34.4897 2.42693 33.1003 2.42693 31.3926Z" fill="#D38D54"/>
<path d="M34.4872 17.7407H26.5863C24.1798 17.7407 22.211 19.7096 22.211 22.116C22.211 24.5224 24.1799 26.4912 26.5863 26.4912H34.4872V17.7407Z" fill="#D38D54"/>
<path d="M22.3145 21.1761C22.2475 21.4793 22.2111 21.7935 22.2111 22.116C22.2111 24.5224 24.18 26.4912 26.5863 26.4912H34.4872V24.6116H26.5863C24.5024 24.6116 22.7476 23.1347 22.3145 21.1761Z" fill="#C17B48"/>
<path d="M26.7068 24.5564C28.066 24.5564 29.1679 23.4545 29.1679 22.0953C29.1679 20.736 28.066 19.6342 26.7068 19.6342C25.3475 19.6342 24.2457 20.736 24.2457 22.0953C24.2457 23.4545 25.3475 24.5564 26.7068 24.5564Z" fill="#DADADA"/>
<path d="M28.2012 23.2422C26.8883 22.8904 26.1092 21.541 26.461 20.228C26.5181 20.0151 26.6017 19.8165 26.7068 19.6343C25.6196 19.6337 24.6243 20.3585 24.3296 21.4585C23.9778 22.7714 24.757 24.121 26.0698 24.4727C27.1699 24.7675 28.2952 24.2681 28.8383 23.3262C28.628 23.3261 28.4142 23.2993 28.2012 23.2422Z" fill="#C0C0C0"/>
<path d="M24.604 19.9927C22.729 21.8679 24.0752 25.0679 26.7069 25.0679C29.3365 25.0679 30.687 21.8699 28.8098 19.9927H28.8097C27.65 18.8333 25.7635 18.8334 24.604 19.9927ZM28.0846 23.4732C27.3248 24.2329 26.0887 24.2328 25.3291 23.4732C24.1009 22.2449 24.9826 20.1481 26.7068 20.1481C28.4305 20.1481 29.3135 22.2443 28.0846 23.4732Z" fill="black"/>
<path d="M18.3913 32.1051C18.108 32.1051 17.8786 32.3346 17.8786 32.6178C17.8786 32.901 18.108 33.1305 18.3913 33.1305H18.4601C18.7433 33.1305 18.9728 32.901 18.9728 32.6178C18.9728 32.3346 18.7433 32.1051 18.4601 32.1051H18.3913Z" fill="black"/>
<path d="M9.06387 32.618C9.06387 31.9343 7.96966 31.9321 7.96966 32.618C7.96966 32.9012 8.19915 33.1307 8.48238 33.1307H8.55115C8.83437 33.1307 9.06387 32.9011 9.06387 32.618Z" fill="black"/>
<path d="M20.3427 11.6142C20.3427 11.8974 20.5722 12.1269 20.8554 12.1269H20.9242C21.2075 12.1269 21.4369 11.8974 21.4369 11.6142C21.4369 10.9304 20.3427 10.9283 20.3427 11.6142Z" fill="black"/>
<path d="M20.8685 32.1051C20.5853 32.1051 20.3558 32.3346 20.3558 32.6178C20.3558 32.901 20.5853 33.1305 20.8685 33.1305H20.9374C21.2206 33.1305 21.4501 32.901 21.4501 32.6178C21.4501 32.3346 21.2206 32.1051 20.9374 32.1051H20.8685Z" fill="black"/>
<path d="M25.8918 33.1305C26.175 33.1305 26.4045 32.901 26.4045 32.6178C26.4045 32.3346 26.175 32.1051 25.8918 32.1051H25.8229C25.5397 32.1051 25.3102 32.3346 25.3102 32.6178C25.3102 32.901 25.5397 33.1305 25.8229 33.1305H25.8918Z" fill="black"/>
<path d="M8.46932 12.1268H8.53809C8.82132 12.1268 9.05081 11.8973 9.05081 11.614C9.05081 11.3308 8.82132 11.1013 8.53809 11.1013H8.46932C8.1861 11.1013 7.9566 11.3308 7.9566 11.614C7.95654 11.8972 8.18603 12.1268 8.46932 12.1268Z" fill="black"/>
<path d="M23.4145 33.1305C23.6977 33.1305 23.9272 32.901 23.9272 32.6178C23.9272 32.3346 23.6977 32.1051 23.4145 32.1051H23.3457C23.0625 32.1051 22.833 32.3346 22.833 32.6178C22.833 32.901 23.0625 33.1305 23.3457 33.1305H23.4145Z" fill="black"/>
<path d="M18.447 11.1013H18.3781C18.0949 11.1013 17.8654 11.3308 17.8654 11.614C17.8654 12.2977 18.9597 12.2999 18.9597 11.614C18.9597 11.3308 18.7302 11.1013 18.447 11.1013Z" fill="black"/>
<path d="M10.9596 32.1051C10.6764 32.1051 10.4469 32.3346 10.4469 32.6178C10.4469 32.901 10.6764 33.1305 10.9596 33.1305H11.0284C11.3116 33.1305 11.5411 32.901 11.5411 32.6178C11.5411 32.3346 11.3116 32.1051 11.0284 32.1051H10.9596Z" fill="black"/>
<path d="M11.0153 11.1013H10.9465C10.6633 11.1013 10.4338 11.3308 10.4338 11.614C10.4338 11.8973 10.6633 12.1268 10.9465 12.1268H11.0153C11.2985 12.1268 11.528 11.8973 11.528 11.614C11.528 11.3308 11.2985 11.1013 11.0153 11.1013Z" fill="black"/>
<path d="M13.4925 11.1013H13.4237C13.1405 11.1013 12.911 11.3308 12.911 11.614C12.911 12.2977 14.0052 12.2999 14.0052 11.614C14.0052 11.3308 13.7757 11.1013 13.4925 11.1013Z" fill="black"/>
<path d="M28.3691 33.1307C28.6522 33.1307 28.8818 32.9012 28.8818 32.618C28.8818 31.9343 27.7875 31.9321 27.7875 32.618C27.7875 32.9012 28.017 33.1307 28.3002 33.1307H28.3691Z" fill="black"/>
<path d="M15.914 32.1051C15.6308 32.1051 15.4013 32.3346 15.4013 32.6178C15.4013 32.901 15.6308 33.1305 15.914 33.1305H15.9828C16.266 33.1305 16.4955 32.901 16.4955 32.6178C16.4955 32.3346 16.266 32.1051 15.9828 32.1051H15.914Z" fill="black"/>
<path d="M15.9697 11.1013H15.9009C15.6177 11.1013 15.3882 11.3308 15.3882 11.614C15.3882 11.8973 15.6177 12.1268 15.9009 12.1268H15.9697C16.253 12.1268 16.4825 11.8973 16.4825 11.614C16.4825 11.3308 16.253 11.1013 15.9697 11.1013Z" fill="black"/>
<path d="M13.4369 32.1051C13.1536 32.1051 12.9241 32.3346 12.9241 32.6178C12.9241 32.901 13.1536 33.1305 13.4369 33.1305H13.5056C13.7889 33.1305 14.0183 32.901 14.0183 32.6178C14.0183 32.3346 13.7889 32.1051 13.5056 32.1051H13.4369Z" fill="black"/>
<path d="M2.38447 27.7684C2.10132 27.7684 1.87176 27.9979 1.87176 28.2811V28.35C1.87176 28.6332 2.10132 28.8627 2.38447 28.8627C3.06816 28.8627 3.07035 27.7684 2.38447 27.7684Z" fill="black"/>
<path d="M2.38447 30.2457C2.10132 30.2457 1.87176 30.4752 1.87176 30.7584V30.8273C1.87176 31.1105 2.10132 31.34 2.38447 31.34C3.06816 31.34 3.07035 30.2457 2.38447 30.2457Z" fill="black"/>
<path d="M2.89719 25.8039C2.89719 25.5206 2.6677 25.2911 2.38447 25.2911C2.10132 25.2911 1.87176 25.5206 1.87176 25.8039V25.8727C1.87176 26.1559 2.10132 26.3854 2.38447 26.3854C2.6677 26.3854 2.89719 26.1559 2.89719 25.8727V25.8039Z" fill="black"/>
<path d="M3.55538 12.1288C3.56823 12.1278 3.58109 12.1272 3.59401 12.1269C4.26895 12.1132 4.29328 11.0415 3.47444 11.1066C3.1921 11.129 2.98141 11.3759 3.00377 11.6582C3.02585 11.9371 3.26935 12.1511 3.55538 12.1288Z" fill="black"/>
<path d="M2.89719 23.3268C2.89719 23.0436 2.6677 22.8141 2.38447 22.8141C2.10132 22.8141 1.87176 23.0436 1.87176 23.3268V23.3956C1.87176 23.6789 2.10132 23.9084 2.38447 23.9084C2.6677 23.9084 2.89719 23.6789 2.89719 23.3956V23.3268Z" fill="black"/>
<path d="M4.10932 32.6239C4.11698 31.9594 3.06119 31.9168 3.01634 32.5807C2.96979 33.272 4.10125 33.3351 4.10932 32.6239Z" fill="black"/>
<path d="M2.89719 13.4177C2.89719 13.1345 2.6677 12.905 2.38447 12.905C2.10132 12.905 1.87176 13.1345 1.87176 13.4177V13.4865C1.87176 13.7697 2.10132 13.9992 2.38447 13.9992C2.6677 13.9992 2.89719 13.7697 2.89719 13.4865V13.4177Z" fill="black"/>
<path d="M6.06085 12.1269C6.34408 12.1269 6.57357 11.8974 6.57357 11.6142C6.57357 10.9305 5.4793 10.9283 5.4793 11.6142C5.4793 11.8974 5.70879 12.1269 5.99201 12.1269H6.06085Z" fill="black"/>
<path d="M2.89719 15.895C2.89719 15.6118 2.6677 15.3823 2.38447 15.3823C2.10132 15.3823 1.87176 15.6118 1.87176 15.895V15.9638C1.87176 16.247 2.10132 16.4765 2.38447 16.4765C2.6677 16.4765 2.89719 16.247 2.89719 15.9638V15.895Z" fill="black"/>
<path d="M2.89719 20.8495C2.89719 20.5663 2.6677 20.3368 2.38447 20.3368C2.10132 20.3368 1.87176 20.5663 1.87176 20.8495V20.9183C1.87176 21.2016 2.10132 21.4311 2.38447 21.4311C2.6677 21.4311 2.89719 21.2016 2.89719 20.9183V20.8495Z" fill="black"/>
<path d="M2.89719 18.3722C2.89719 18.089 2.6677 17.8595 2.38447 17.8595C2.10132 17.8595 1.87176 18.089 1.87176 18.3722V18.441C1.87176 18.7242 2.10132 18.9537 2.38447 18.9537C2.6677 18.9537 2.89719 18.7242 2.89719 18.441V18.3722Z" fill="black"/>
<path d="M32.1016 12.7975C32.1023 12.8103 32.1028 12.8232 32.1028 12.8362C32.1036 13.1188 32.333 13.3474 32.6155 13.3474C32.616 13.3474 32.6166 13.3474 32.617 13.3474C32.9001 13.3466 33.129 13.1164 33.1282 12.8333C33.1266 12.022 32.0594 12.1133 32.1016 12.7975Z" fill="black"/>
<path d="M6.00514 33.1307H6.07398C6.35721 33.1307 6.5867 32.9012 6.5867 32.618C6.5867 31.9343 5.49242 31.9321 5.49242 32.618C5.49242 32.9011 5.72192 33.1307 6.00514 33.1307Z" fill="black"/>
<path d="M25.8787 12.1269C26.1619 12.1269 26.3914 11.8974 26.3914 11.6142C26.3914 10.9305 25.2972 10.9283 25.2972 11.6142C25.2972 11.8974 25.5266 12.1269 25.8099 12.1269H25.8787Z" fill="black"/>
<path d="M23.4015 12.1268C23.6847 12.1268 23.9142 11.8973 23.9142 11.614C23.9142 11.3308 23.6847 11.1013 23.4015 11.1013H23.3326C23.0494 11.1013 22.8199 11.3308 22.8199 11.614C22.8199 11.8973 23.0494 12.1268 23.3326 12.1268H23.4015Z" fill="black"/>
<path d="M32.6155 29.4886C32.8988 29.4886 33.1282 29.2591 33.1282 28.9759V28.9071C33.1282 28.6239 32.8988 28.3944 32.6155 28.3944C32.3323 28.3944 32.1028 28.6239 32.1028 28.9071V28.9759C32.1028 29.2591 32.3323 29.4886 32.6155 29.4886Z" fill="black"/>
<path d="M32.102 31.4274C32.0677 32.1114 33.1282 32.1882 33.1282 31.3926V31.3843C33.1282 31.1011 32.8988 30.8716 32.6155 30.8716C32.3323 30.8716 32.1028 31.1011 32.1028 31.3843C32.1027 31.3912 32.103 31.4053 32.102 31.4274Z" fill="black"/>
<path d="M28.3559 12.1269C28.6392 12.1269 28.8687 11.8974 28.8687 11.6142C28.8687 10.9305 27.7744 10.9283 27.7744 11.6142C27.7744 11.8974 28.0039 12.1269 28.2871 12.1269H28.3559Z" fill="black"/>
<path d="M30.8332 12.1268C31.1164 12.1268 31.3459 11.8973 31.3459 11.614C31.3459 11.3308 31.1164 11.1013 30.8332 11.1013H30.7643C30.4811 11.1013 30.2516 11.3308 30.2516 11.614C30.2516 11.8973 30.4811 12.1268 30.7643 12.1268H30.8332Z" fill="black"/>
<path d="M32.6155 14.7305C32.3323 14.7305 32.1028 14.96 32.1028 15.2432V15.312C32.1028 15.5953 32.3323 15.8247 32.6155 15.8247C32.8988 15.8247 33.1282 15.5953 33.1282 15.312V15.2432C33.1282 14.96 32.8988 14.7305 32.6155 14.7305Z" fill="black"/>
<path d="M30.8463 33.1305C31.1295 33.1305 31.359 32.901 31.359 32.6178C31.359 32.3346 31.1295 32.1051 30.8463 32.1051H30.7774C30.4942 32.1051 30.2647 32.3346 30.2647 32.6178C30.2647 32.901 30.4942 33.1305 30.7774 33.1305H30.8463Z" fill="black"/>
<path d="M32.7571 9.49916C33.4481 8.49437 33.8226 7.30172 33.8226 6.06792C33.8226 1.59369 29.1126 -1.34507 25.0937 0.62397C22.1763 -0.809995 18.6309 0.326868 17.0891 3.19917L14.3325 0.442674C13.7453 -0.144694 12.7891 -0.144694 12.2016 0.442605L3.40874 9.23549C1.51156 9.34022 0 10.9165 0 12.8394V31.3927C0 33.3831 1.61936 35.0025 3.6098 35.0025H6.96125C7.24448 35.0025 7.47397 34.773 7.47397 34.4898C7.47397 34.2065 7.24448 33.9771 6.96125 33.9771H3.6098C2.18479 33.9771 1.02543 32.8178 1.02543 31.3927V12.8393C1.02543 11.4143 2.18472 10.255 3.6098 10.255C33.1521 10.2403 31.8096 10.2894 31.8028 10.2883C33.0323 10.4865 33.9745 11.5547 33.9745 12.8393V17.2279H32.7578C32.4279 17.1327 32.1028 17.3809 32.1028 17.7202V17.7544C32.1028 18.0794 32.4046 18.3294 32.7319 18.2533H33.9745V25.9784H32.792C32.6765 25.936 32.5548 25.9359 32.439 25.9784H26.5863C24.4565 25.9784 22.7238 24.2457 22.7238 22.1159C22.7238 19.9861 24.4565 18.2533 26.5863 18.2533H30.2354C30.5186 18.2533 30.7481 18.0238 30.7481 17.7406C30.7481 17.4574 30.5186 17.2279 30.2354 17.2279H26.5863C23.8911 17.2279 21.6984 19.4207 21.6984 22.1159C21.6984 24.8112 23.8911 27.0038 26.5863 27.0038C27.4532 27.0038 32.7207 27.0038 33.9745 27.0038V31.3925C33.9745 32.8175 32.8152 33.9768 31.3901 33.9768H9.354C9.07077 33.9768 8.84128 34.2063 8.84128 34.4896C8.84128 34.7728 9.07077 35.0023 9.354 35.0023H31.3902C33.3806 35.0023 35 33.3829 35 31.3925V26.4911C35 26.1035 35 13.1891 35 12.8393C34.9999 11.3326 34.0716 10.0391 32.7571 9.49916ZM27.6046 9.2225C28.773 7.30781 28.7978 4.8707 27.6044 2.91321C29.4031 2.82298 30.9189 4.26453 30.9189 6.06792C30.919 7.86886 29.4058 9.3128 27.6046 9.2225ZM22.4287 1.0312C26.6169 1.0312 29.0332 5.90597 26.3473 9.22961H25.1679C28.0853 6.69795 26.2877 1.88395 22.4287 1.88395C20.6477 1.88395 19.0994 3.00694 18.5048 4.61489L17.853 3.96305C18.6684 2.19671 20.4674 1.0312 22.4287 1.0312ZM19.333 5.44296C19.6252 3.9826 20.9156 2.90932 22.4287 2.90932C24.1703 2.90932 25.5871 4.32626 25.5871 6.06786C25.5871 7.58078 24.5139 8.87125 23.0536 9.1635L19.333 5.44296ZM7.53843 9.22961L12.9267 3.84123C13.1145 3.65351 13.4198 3.65365 13.6074 3.84123L15.3997 5.63355C15.6 5.83371 15.9246 5.83371 16.1248 5.63355C16.325 5.43325 16.325 5.10867 16.1248 4.90843L14.3325 3.11611C13.745 2.52868 12.7892 2.52868 12.2016 3.11611L6.08799 9.22967H4.86493L12.9269 1.16779C13.1133 0.981231 13.4209 0.981163 13.6074 1.16779C14.3829 1.94322 20.9544 8.51474 21.6693 9.22967H20.4461L17.8196 6.60313C17.6193 6.40297 17.2947 6.40297 17.0944 6.60313C16.8942 6.80343 16.8942 7.12802 17.0944 7.32825L18.9958 9.22961H7.53843ZM30.4961 9.22961C31.3822 8.4619 31.9444 7.32968 31.9444 6.06792C31.9444 3.4262 29.5074 1.42552 26.8992 1.97412C26.6739 1.72802 26.4277 1.49928 26.1617 1.29132C29.4271 0.20115 32.7972 2.63888 32.7972 6.06792C32.7972 7.22824 32.3994 8.345 31.6719 9.24075C31.4232 9.2212 31.233 9.2333 30.4961 9.22961Z" fill="black"/>
</svg>
